Parisienne-Regular.ufo
<glyph name="exclam" format="2">
  <advance width="761"/>
  <unicode hex="0021"/>
  <outline>
    <contour>
      <point x="235" y="243" type="line"/>
      <point x="192" y="260" type="line"/>
      <point x="745" y="1495" type="line"/>
      <point x="861" y="1442" type="line"/>
    </contour>
    <contour>
      <point x="196" y="63" type="qcurve" smooth="yes"/>
      <point x="196" y="33"/>
      <point x="153" y="-10"/>
      <point x="122" y="-10" type="qcurve" smooth="yes"/>
      <point x="93" y="-10"/>
      <point x="50" y="33"/>
      <point x="50" y="63" type="qcurve" smooth="yes"/>
      <point x="50" y="92"/>
      <point x="93" y="135"/>
      <point x="122" y="135" type="qcurve" smooth="yes"/>
      <point x="153" y="135"/>
      <point x="196" y="92"/>
    </contour>
  </outline>
</glyph>
<glyph name="quotedbl" format="2">
  <advance width="669"/>
  <unicode hex="0022"/>
  <outline>
    <contour>
      <point x="414" y="1068" type="line"/>
      <point x="366" y="1068" type="line"/>
      <point x="512" y="1444" type="line"/>
      <point x="637" y="1444" type="line"/>
    </contour>
    <contour>
      <point x="583" y="1068" type="line"/>
      <point x="535" y="1068" type="line"/>
      <point x="681" y="1444" type="line"/>
      <point x="806" y="1444" type="line"/>
    </contour>
  </outline>
</glyph>
<glyph name="numbersign" format="2">
  <advance width="1024"/>
  <unicode hex="0023"/>
  <outline>
    <contour>
      <point x="153" y="101" type="line"/>
      <point x="291" y="460" type="line"/>
      <point x="139" y="460" type="line"/>
      <point x="161" y="515" type="line"/>
      <point x="312" y="515" type="line"/>
      <point x="445" y="860" type="line"/>
      <point x="293" y="860" type="line"/>
      <point x="314" y="915" type="line"/>
      <point x="466" y="915" type="line"/>
      <point x="593" y="1244" type="line"/>
      <point x="657" y="1244" type="line"/>
      <point x="530" y="915" type="line"/>
      <point x="766" y="915" type="line"/>
      <point x="893" y="1244" type="line"/>
      <point x="957" y="1244" type="line"/>
      <point x="830" y="915" type="line"/>
      <point x="989" y="915" type="line"/>
      <point x="967" y="860" type="line"/>
      <point x="809" y="860" type="line"/>
      <point x="676" y="515" type="line"/>
      <point x="835" y="515" type="line"/>
      <point x="813" y="460" type="line"/>
      <point x="655" y="460" type="line"/>
      <point x="517" y="101" type="line"/>
      <point x="453" y="101" type="line"/>
      <point x="591" y="460" type="line"/>
      <point x="355" y="460" type="line"/>
      <point x="217" y="101" type="line"/>
    </contour>
    <contour>
      <point x="376" y="515" type="line"/>
      <point x="612" y="515" type="line"/>
      <point x="745" y="860" type="line"/>
      <point x="509" y="860" type="line"/>
    </contour>
  </outline>
</glyph>
<glyph name="parenleft" format="2">
  <advance width="702"/>
  <unicode hex="0028"/>
  <outline>
    <contour>
      <point x="302" y="-473" type="line"/>
      <point x="273" y="-419"/>
      <point x="200" y="-266"/>
      <point x="135" y="-80"/>
      <point x="90" y="132"/>
      <point x="90" y="245" type="qcurve" smooth="yes"/>
      <point x="90" y="444"/>
      <point x="220" y="807"/>
      <point x="456" y="1115"/>
      <point x="786" y="1360"/>
      <point x="986" y="1441" type="qcurve"/>
      <point x="1002" y="1399" type="line"/>
      <point x="916" y="1364"/>
      <point x="731" y="1243"/>
      <point x="553" y="1077"/>
      <point x="393" y="870"/>
      <point x="272" y="626"/>
      <point x="201" y="348"/>
      <point x="201" y="195" type="qcurve" smooth="yes"/>
      <point x="201" y="80"/>
      <point x="230" y="-109"/>
      <point x="274" y="-266"/>
      <point x="325" y="-395"/>
      <point x="347" y="-450" type="qcurve"/>
    </contour>
  </outline>
</glyph>
<glyph name="comma" format="2">
  <advance width="350"/>
  <unicode hex="002C"/>
  <outline>
    <contour>
      <point x="-44" y="-109" type="line"/>
      <point x="-4" y="-89"/>
      <point x="66" y="-33"/>
      <point x="80" y="-7" type="qcurve"/>
      <point x="48" y="0"/>
      <point x="20" y="41"/>
      <point x="20" y="64" type="qcurve" smooth="yes"/>
      <point x="20" y="95"/>
      <point x="64" y="136"/>
      <point x="93" y="136" type="qcurve" smooth="yes"/>
      <point x="124" y="136"/>
      <point x="165" y="92"/>
      <point x="165" y="63" type="qcurve" smooth="yes"/>
      <point x="165" y="31"/>
      <point x="132" y="-30"/>
      <point x="78" y="-84"/>
      <point x="10" y="-127"/>
      <point x="-25" y="-141" type="qcurve"/>
    </contour>
  </outline>
</glyph>
<glyph name="hyphen" format="2">
  <advance width="800"/>
  <unicode hex="002D"/>
  <outline>
    <contour>
      <point x="100" y="385" type="line"/>
      <point x="137" y="460" type="line"/>
      <point x="639" y="460" type="line"/>
      <point x="602" y="385" type="line"/>
    </contour>
  </outline>
</glyph>
<glyph name="slash" format="2">
  <advance width="868"/>
  <unicode hex="002F"/>
  <outline>
    <contour>
      <point x="-200" y="-99" type="line"/>
      <point x="1084" y="1444" type="line"/>
      <point x="1168" y="1444" type="line"/>
      <point x="-116" y="-99" type="line"/>
    </contour>
  </outline>
</glyph>
<glyph name="five" format="2">
  <advance width="1341"/>
  <unicode hex="0035"/>
  <outline>
    <contour>
      <point x="1341" y="1383" type="line"/>
      <point x="1281" y="1340"/>
      <point x="1172" y="1288"/>
      <point x="1075" y="1261"/>
      <point x="991" y="1252"/>
      <point x="955" y="1252" type="qcurve" smooth="yes"/>
      <point x="922" y="1252"/>
      <point x="842" y="1266"/>
      <point x="763" y="1292"/>
      <point x="690" y="1326"/>
      <point x="663" y="1347" type="qcurve"/>
      <point x="643" y="1261"/>
      <point x="596" y="1103"/>
      <point x="571" y="1012" type="qcurve"/>
      <point x="622" y="1026"/>
      <point x="731" y="1042"/>
      <point x="791" y="1042" type="qcurve" smooth="yes"/>
      <point x="893" y="1042"/>
      <point x="1069" y="984"/>
      <point x="1198" y="869"/>
      <point x="1271" y="695"/>
      <point x="1271" y="578" type="qcurve" smooth="yes"/>
      <point x="1271" y="470"/>
      <point x="1207" y="255"/>
      <point x="1092" y="59"/>
      <point x="931" y="-111"/>
      <point x="739" y="-235"/>
      <point x="522" y="-306"/>
      <point x="407" y="-306" type="qcurve" smooth="yes"/>
      <point x="316" y="-306"/>
      <point x="141" y="-255"/>
      <point x="4" y="-152"/>
      <point x="-80" y="2"/>
      <point x="-80" y="105" type="qcurve" smooth="yes"/>
      <point x="-80" y="167"/>
      <point x="-48" y="269"/>
      <point x="-25" y="300" type="qcurve"/>
      <point x="17" y="269" type="line"/>
      <point x="-2" y="243"/>
      <point x="-27" y="156"/>
      <point x="-27" y="105" type="qcurve" smooth="yes"/>
      <point x="-27" y="27"/>
      <point x="32" y="-101"/>
      <point x="135" y="-192"/>
      <point x="273" y="-242"/>
      <point x="352" y="-242" type="qcurve" smooth="yes"/>
      <point x="451" y="-242"/>
      <point x="648" y="-171"/>
      <point x="828" y="-49"/>
      <point x="983" y="117"/>
      <point x="1096" y="306"/>
      <point x="1161" y="511"/>
      <point x="1161" y="612" type="qcurve" smooth="yes"/>
      <point x="1161" y="717"/>
      <point x="1097" y="861"/>
      <point x="986" y="950"/>
      <point x="835" y="989"/>
      <point x="749" y="989" type="qcurve" smooth="yes"/>
      <point x="701" y="989"/>
      <point x="601" y="969"/>
      <point x="552" y="952" type="qcurve"/>
      <point x="497" y="789"/>
      <point x="353" y="617"/>
      <point x="281" y="617" type="qcurve" smooth="yes"/>
      <point x="248" y="617"/>
      <point x="196" y="663"/>
      <point x="196" y="701" type="qcurve" smooth="yes"/>
      <point x="196" y="735"/>
      <point x="240" y="815"/>
      <point x="322" y="893"/>
      <point x="437" y="965"/>
      <point x="508" y="991" type="qcurve"/>
      <point x="538" y="1093"/>
      <point x="597" y="1291"/>
      <point x="624" y="1406" type="qcurve"/>
      <point x="659" y="1424" type="line"/>
      <point x="740" y="1392"/>
      <point x="908" y="1369"/>
      <point x="983" y="1369" type="qcurve" smooth="yes"/>
      <point x="1076" y="1369"/>
      <point x="1250" y="1395"/>
      <point x="1325" y="1424" type="qcurve"/>
    </contour>
    <contour>
      <point x="288" y="667" type="qcurve" smooth="yes"/>
      <point x="307" y="667"/>
      <point x="355" y="696"/>
      <point x="406" y="759"/>
      <point x="459" y="856"/>
      <point x="485" y="925" type="qcurve"/>
      <point x="435" y="902"/>
      <point x="348" y="846"/>
      <point x="284" y="788"/>
      <point x="247" y="729"/>
      <point x="247" y="703" type="qcurve" smooth="yes"/>
      <point x="247" y="687"/>
      <point x="271" y="667"/>
    </contour>
  </outline>
</glyph>
<glyph name="six" format="2">
  <advance width="1416"/>
  <unicode hex="0036"/>
  <outline>
    <contour>
      <point x="1470" y="1064" type="line"/>
      <point x="1472" y="1067"/>
      <point x="1485" y="1127"/>
      <point x="1485" y="1170" type="qcurve" smooth="yes"/>
      <point x="1485" y="1230"/>
      <point x="1444" y="1329"/>
      <point x="1370" y="1400"/>
      <point x="1268" y="1439"/>
      <point x="1208" y="1439" type="qcurve" smooth="yes"/>
      <point x="1126" y="1439"/>
      <point x="949" y="1380"/>
      <point x="772" y="1274"/>
      <point x="600" y="1126"/>
      <point x="445" y="948"/>
      <point x="314" y="745"/>
      <point x="219" y="530"/>
      <point x="165" y="308"/>
      <point x="165" y="199" type="qcurve" smooth="yes"/>
      <point x="165" y="100"/>
      <point x="204" y="-59"/>
      <point x="284" y="-172"/>
      <point x="408" y="-232"/>
      <point x="494" y="-232" type="qcurve" smooth="yes"/>
      <point x="597" y="-232"/>
      <point x="792" y="-147"/>
      <point x="962" y="-6"/>
      <point x="1103" y="175"/>
      <point x="1205" y="368"/>
      <point x="1261" y="558"/>
      <point x="1261" y="637" type="qcurve" smooth="yes"/>
      <point x="1261" y="710"/>
      <point x="1216" y="829"/>
      <point x="1132" y="912"/>
      <point x="1012" y="957"/>
      <point x="937" y="957" type="qcurve" smooth="yes"/>
      <point x="856" y="957"/>
      <point x="683" y="905"/>
      <point x="515" y="795"/>
      <point x="363" y="623"/>
      <point x="304" y="503" type="qcurve"/>
      <point x="257" y="526" type="line"/>
      <point x="320" y="654"/>
      <point x="485" y="837"/>
      <point x="668" y="955"/>
      <point x="858" y="1010"/>
      <point x="945" y="1010" type="qcurve" smooth="yes"/>
      <point x="1035" y="1010"/>
      <point x="1186" y="950"/>
      <point x="1295" y="837"/>
      <point x="1356" y="672"/>
      <point x="1356" y="567" type="qcurve" smooth="yes"/>
      <point x="1356" y="479"/>
      <point x="1297" y="283"/>
      <point x="1191" y="91"/>
      <point x="1041" y="-84"/>
      <point x="858" y="-217"/>
      <point x="648" y="-296"/>
      <point x="534" y="-296" type="qcurve" smooth="yes"/>
      <point x="430" y="-296"/>
      <point x="259" y="-226"/>
      <point x="137" y="-90"/>
      <point x="70" y="113"/>
      <point x="70" y="246" type="qcurve" smooth="yes"/>
      <point x="70" y="400"/>
      <point x="161" y="705"/>
      <point x="318" y="983"/>
      <point x="529" y="1223"/>
      <point x="771" y="1399"/>
      <point x="1032" y="1499"/>
      <point x="1160" y="1499" type="qcurve" smooth="yes"/>
      <point x="1260" y="1499"/>
      <point x="1403" y="1443"/>
      <point x="1494" y="1351"/>
      <point x="1536" y="1231"/>
      <point x="1536" y="1167" type="qcurve" smooth="yes"/>
      <point x="1536" y="1138"/>
      <point x="1528" y="1078"/>
      <point x="1520" y="1048" type="qcurve"/>
    </contour>
  </outline>
</glyph>
<glyph name="equal" format="2">
  <advance width="800"/>
  <unicode hex="003D"/>
  <outline>
    <contour>
      <point x="103" y="524" type="line"/>
      <point x="130" y="579" type="line"/>
      <point x="722" y="579" type="line"/>
      <point x="695" y="524" type="line"/>
    </contour>
    <contour>
      <point x="171" y="785" type="line"/>
      <point x="198" y="840" type="line"/>
      <point x="790" y="840" type="line"/>
      <point x="763" y="785" type="line"/>
    </contour>
  </outline>
</glyph>
<glyph name="greater" format="2">
  <advance width="800"/>
  <unicode hex="003E"/>
  <outline>
    <contour>
      <point x="661" y="684" type="line"/>
      <point x="158" y="294" type="line"/>
      <point x="124" y="337" type="line"/>
      <point x="589" y="697" type="line"/>
      <point x="373" y="1045" type="line"/>
      <point x="419" y="1074" type="line"/>
    </contour>
  </outline>
</glyph>
<glyph name="question" format="2">
  <advance width="1136"/>
  <unicode hex="003F"/>
  <outline>
    <contour>
      <point x="469" y="251" type="line"/>
      <point x="457" y="280"/>
      <point x="445" y="338"/>
      <point x="445" y="363" type="qcurve" smooth="yes"/>
      <point x="445" y="434"/>
      <point x="507" y="544"/>
      <point x="608" y="634"/>
      <point x="737" y="711"/>
      <point x="871" y="787"/>
      <point x="1000" y="868"/>
      <point x="1101" y="966"/>
      <point x="1163" y="1087"/>
      <point x="1163" y="1165" type="qcurve" smooth="yes"/>
      <point x="1163" y="1231"/>
      <point x="1114" y="1319"/>
      <point x="1036" y="1372"/>
      <point x="939" y="1395"/>
      <point x="891" y="1395" type="qcurve" smooth="yes"/>
      <point x="803" y="1395"/>
      <point x="648" y="1341"/>
      <point x="532" y="1253"/>
      <point x="465" y="1139"/>
      <point x="465" y="1078" type="qcurve" smooth="yes"/>
      <point x="465" y="1043"/>
      <point x="488" y="991"/>
      <point x="527" y="957"/>
      <point x="578" y="941"/>
      <point x="605" y="941" type="qcurve" smooth="yes"/>
      <point x="651" y="941"/>
      <point x="727" y="957"/>
      <point x="753" y="968" type="qcurve"/>
      <point x="762" y="927" type="line"/>
      <point x="729" y="913"/>
      <point x="634" y="889"/>
      <point x="577" y="889" type="qcurve" smooth="yes"/>
      <point x="532" y="889"/>
      <point x="451" y="909"/>
      <point x="391" y="953"/>
      <point x="355" y="1022"/>
      <point x="355" y="1070" type="qcurve" smooth="yes"/>
      <point x="355" y="1145"/>
      <point x="447" y="1280"/>
      <point x="599" y="1383"/>
      <point x="794" y="1443"/>
      <point x="898" y="1443" type="qcurve" smooth="yes"/>
      <point x="975" y="1443"/>
      <point x="1111" y="1404"/>
      <point x="1212" y="1327"/>
      <point x="1270" y="1214"/>
      <point x="1270" y="1140" type="qcurve" smooth="yes"/>
      <point x="1270" y="1057"/>
      <point x="1203" y="926"/>
      <point x="1094" y="820"/>
      <point x="955" y="733"/>
      <point x="810" y="655"/>
      <point x="671" y="581"/>
      <point x="562" y="500"/>
      <point x="495" y="406"/>
      <point x="495" y="348" type="qcurve" smooth="yes"/>
      <point x="495" y="331"/>
      <point x="501" y="294"/>
      <point x="509" y="274" type="qcurve"/>
    </contour>
    <contour>
      <point x="486" y="63" type="qcurve" smooth="yes"/>
      <point x="486" y="33"/>
      <point x="443" y="-10"/>
      <point x="412" y="-10" type="qcurve" smooth="yes"/>
      <point x="383" y="-10"/>
      <point x="340" y="33"/>
      <point x="340" y="63" type="qcurve" smooth="yes"/>
      <point x="340" y="92"/>
      <point x="383" y="135"/>
      <point x="412" y="135" type="qcurve" smooth="yes"/>
      <point x="443" y="135"/>
      <point x="486" y="92"/>
    </contour>
  </outline>
</glyph>
<glyph name="B" format="2">
  <advance width="2068"/>
  <unicode hex="0042"/>
  <outline>
    <contour>
      <point x="1681" y="1438" type="line"/>
      <point x="1665" y="1418"/>
      <point x="1636" y="1381"/>
      <point x="1622" y="1361" type="qcurve"/>
      <point x="1723" y="1324"/>
      <point x="1847" y="1215"/>
      <point x="1915" y="1096"/>
      <point x="1938" y="981"/>
      <point x="1938" y="939" type="qcurve" smooth="yes"/>
      <point x="1938" y="880"/>
      <point x="1899" y="773"/>
      <point x="1834" y="685"/>
      <point x="1748" y="620"/>
      <point x="1701" y="603" type="qcurve"/>
      <point x="1798" y="523"/>
      <point x="1893" y="327"/>
      <point x="1893" y="227" type="qcurve" smooth="yes"/>
      <point x="1893" y="143"/>
      <point x="1824" y="-7"/>
      <point x="1706" y="-119"/>
      <point x="1545" y="-185"/>
      <point x="1454" y="-185" type="qcurve" smooth="yes"/>
      <point x="1375" y="-185"/>
      <point x="1242" y="-134"/>
      <point x="1137" y="-46"/>
      <point x="1060" y="74"/>
      <point x="1038" y="142" type="qcurve"/>
      <point x="1088" y="157" type="line"/>
      <point x="1125" y="37"/>
      <point x="1295" y="-94"/>
      <point x="1415" y="-94" type="qcurve" smooth="yes"/>
      <point x="1489" y="-94"/>
      <point x="1624" y="-39"/>
      <point x="1726" y="56"/>
      <point x="1786" y="185"/>
      <point x="1786" y="260" type="qcurve" smooth="yes"/>
      <point x="1786" y="311"/>
      <point x="1758" y="403"/>
      <point x="1712" y="485"/>
      <point x="1655" y="554"/>
      <point x="1625" y="581" type="qcurve"/>
      <point x="1598" y="576"/>
      <point x="1544" y="570"/>
      <point x="1518" y="570" type="qcurve" smooth="yes"/>
      <point x="1482" y="570"/>
      <point x="1407" y="581"/>
      <point x="1346" y="603"/>
      <point x="1307" y="639"/>
      <point x="1307" y="665" type="qcurve" smooth="yes"/>
      <point x="1307" y="671"/>
      <point x="1313" y="694"/>
      <point x="1332" y="716"/>
      <point x="1370" y="733"/>
      <point x="1403" y="733" type="qcurve" smooth="yes"/>
      <point x="1434" y="733"/>
      <point x="1497" y="719"/>
      <point x="1555" y="696"/>
      <point x="1609" y="667"/>
      <point x="1631" y="652" type="qcurve"/>
      <point x="1667" y="668"/>
      <point x="1740" y="723"/>
      <point x="1800" y="803"/>
      <point x="1838" y="907"/>
      <point x="1838" y="972" type="qcurve" smooth="yes"/>
      <point x="1838" y="1086"/>
      <point x="1712" y="1268"/>
      <point x="1588" y="1316" type="qcurve"/>
      <point x="1528" y="1232"/>
      <point x="1424" y="1066"/>
      <point x="1334" y="900"/>
      <point x="1255" y="734"/>
      <point x="1219" y="649" type="qcurve" smooth="yes"/>
      <point x="1136" y="455"/>
      <point x="978" y="180"/>
      <point x="799" y="6"/>
      <point x="588" y="-75"/>
      <point x="452" y="-75" type="qcurve" smooth="yes"/>
      <point x="347" y="-75"/>
      <point x="195" y="-6"/>
      <point x="97" y="114"/>
      <point x="50" y="273"/>
      <point x="50" y="363" type="qcurve" smooth="yes"/>
      <point x="50" y="463"/>
      <point x="114" y="676"/>
      <point x="177" y="782" type="qcurve" smooth="yes"/>
      <point x="217" y="849"/>
      <point x="335" y="994"/>
      <point x="487" y="1135"/>
      <point x="674" y="1262"/>
      <point x="891" y="1357"/>
      <point x="1138" y="1414"/>
      <point x="1275" y="1414" type="qcurve" smooth="yes"/>
      <point x="1359" y="1414"/>
      <point x="1498" y="1397"/>
      <point x="1557" y="1381" type="qcurve"/>
      <point x="1580" y="1404"/>
      <point x="1627" y="1450"/>
      <point x="1652" y="1473" type="qcurve"/>
    </contour>
    <contour>
      <point x="1283" y="1023" type="qcurve" smooth="yes"/>
      <point x="1336" y="1111"/>
      <point x="1451" y="1266"/>
      <point x="1517" y="1338" type="qcurve"/>
      <point x="1479" y="1347"/>
      <point x="1394" y="1357"/>
      <point x="1347" y="1357" type="qcurve" smooth="yes"/>
      <point x="1196" y="1357"/>
      <point x="903" y="1274"/>
      <point x="638" y="1126"/>
      <point x="412" y="922"/>
      <point x="247" y="683"/>
      <point x="154" y="417"/>
      <point x="154" y="280" type="qcurve" smooth="yes"/>
      <point x="154" y="212"/>
      <point x="191" y="101"/>
      <point x="265" y="22"/>
      <point x="374" y="-21"/>
      <point x="445" y="-21" type="qcurve" smooth="yes"/>
      <point x="564" y="-21"/>
      <point x="742" y="68"/>
      <point x="881" y="222"/>
      <point x="993" y="427"/>
      <point x="1100" y="659"/>
      <point x="1212" y="905"/>
    </contour>
    <contour>
      <point x="1563" y="632" type="qcurve"/>
      <point x="1548" y="643"/>
      <point x="1507" y="662"/>
      <point x="1463" y="675"/>
      <point x="1419" y="683"/>
      <point x="1403" y="683" type="qcurve" smooth="yes"/>
      <point x="1375" y="683"/>
      <point x="1360" y="670"/>
      <point x="1360" y="665" type="qcurve" smooth="yes"/>
      <point x="1360" y="656"/>
      <point x="1387" y="642"/>
      <point x="1428" y="631"/>
      <point x="1478" y="625"/>
      <point x="1502" y="625" type="qcurve" smooth="yes"/>
      <point x="1513" y="625"/>
      <point x="1541" y="627"/>
    </contour>
  </outline>
</glyph>
<glyph name="L" format="2">
  <advance width="1708"/>
  <unicode hex="004C"/>
  <outline>
    <contour>
      <point x="1133" y="-129" type="qcurve" smooth="yes"/>
      <point x="1068" y="-129"/>
      <point x="935" y="-106"/>
      <point x="799" y="-69"/>
      <point x="663" y="-25"/>
      <point x="597" y="-4" type="qcurve"/>
      <point x="518" y="-52"/>
      <point x="346" y="-107"/>
      <point x="251" y="-107" type="qcurve" smooth="yes"/>
      <point x="170" y="-107"/>
      <point x="84" y="-49"/>
      <point x="84" y="-1" type="qcurve" smooth="yes"/>
      <point x="84" y="62"/>
      <point x="224" y="130"/>
      <point x="366" y="130" type="qcurve" smooth="yes"/>
      <point x="428" y="130"/>
      <point x="554" y="112"/>
      <point x="619" y="98" type="qcurve"/>
      <point x="682" y="153"/>
      <point x="796" y="291"/>
      <point x="850" y="370" type="qcurve"/>
      <point x="809" y="365"/>
      <point x="725" y="360"/>
      <point x="682" y="360" type="qcurve" smooth="yes"/>
      <point x="525" y="360"/>
      <point x="279" y="435"/>
      <point x="109" y="566"/>
      <point x="20" y="743"/>
      <point x="20" y="845" type="qcurve" smooth="yes"/>
      <point x="20" y="965"/>
      <point x="112" y="1151"/>
      <point x="273" y="1278"/>
      <point x="491" y="1345"/>
      <point x="616" y="1345" type="qcurve" smooth="yes"/>
      <point x="695" y="1345"/>
      <point x="825" y="1321"/>
      <point x="920" y="1293"/>
      <point x="974" y="1267"/>
      <point x="977" y="1266" type="qcurve"/>
      <point x="951" y="1221" type="line" smooth="yes"/>
      <point x="950" y="1221"/>
      <point x="902" y="1244"/>
      <point x="818" y="1270"/>
      <point x="702" y="1292"/>
      <point x="635" y="1292" type="qcurve" smooth="yes"/>
      <point x="517" y="1292"/>
      <point x="330" y="1223"/>
      <point x="201" y="1103"/>
      <point x="132" y="942"/>
      <point x="132" y="851" type="qcurve" smooth="yes"/>
      <point x="132" y="749"/>
      <point x="226" y="588"/>
      <point x="384" y="477"/>
      <point x="593" y="419"/>
      <point x="708" y="419" type="qcurve" smooth="yes"/>
      <point x="755" y="419"/>
      <point x="846" y="425"/>
      <point x="891" y="432" type="qcurve"/>
      <point x="962" y="543"/>
      <point x="1095" y="781"/>
      <point x="1227" y="1009"/>
      <point x="1361" y="1214"/>
      <point x="1506" y="1368"/>
      <point x="1666" y="1459"/>
      <point x="1758" y="1459" type="qcurve" smooth="yes"/>
      <point x="1794" y="1459"/>
      <point x="1856" y="1436"/>
      <point x="1902" y="1389"/>
      <point x="1928" y="1317"/>
      <point x="1928" y="1269" type="qcurve" smooth="yes"/>
      <point x="1928" y="1191"/>
      <point x="1868" y="1018"/>
      <point x="1754" y="845"/>
      <point x="1590" y="678"/>
      <point x="1382" y="536"/>
      <point x="1134" y="425"/>
      <point x="994" y="394" type="qcurve"/>
      <point x="928" y="303"/>
      <point x="788" y="142"/>
      <point x="710" y="77" type="qcurve"/>
      <point x="786" y="57"/>
      <point x="932" y="12"/>
      <point x="1063" y="-25"/>
      <point x="1175" y="-50"/>
      <point x="1218" y="-50" type="qcurve" smooth="yes"/>
      <point x="1282" y="-50"/>
      <point x="1401" y="-6"/>
      <point x="1460" y="50" type="qcurve"/>
      <point x="1501" y="18" type="line"/>
      <point x="1500" y="17"/>
      <point x="1480" y="-6"/>
      <point x="1440" y="-39"/>
      <point x="1380" y="-76"/>
      <point x="1299" y="-108"/>
      <point x="1196" y="-129"/>
    </contour>
    <contour>
      <point x="1762" y="1404" type="qcurve" smooth="yes"/>
      <point x="1706" y="1404"/>
      <point x="1596" y="1324"/>
      <point x="1484" y="1187"/>
      <point x="1369" y="1002"/>
      <point x="1247" y="793"/>
      <point x="1115" y="571"/>
      <point x="1043" y="464" type="qcurve"/>
      <point x="1163" y="497"/>
      <point x="1380" y="603"/>
      <point x="1565" y="735"/>
      <point x="1714" y="886"/>
      <point x="1819" y="1044"/>
      <point x="1875" y="1199"/>
      <point x="1875" y="1270" type="qcurve" smooth="yes"/>
      <point x="1875" y="1307"/>
      <point x="1857" y="1358"/>
      <point x="1826" y="1390"/>
      <point x="1785" y="1404"/>
    </contour>
    <contour>
      <point x="245" y="-55" type="qcurve" smooth="yes"/>
      <point x="319" y="-55"/>
      <point x="451" y="-14"/>
      <point x="513" y="22" type="qcurve"/>
      <point x="447" y="41"/>
      <point x="324" y="65"/>
      <point x="267" y="65" type="qcurve" smooth="yes"/>
      <point x="199" y="65"/>
      <point x="136" y="25"/>
      <point x="136" y="-1" type="qcurve" smooth="yes"/>
      <point x="136" y="-9"/>
      <point x="145" y="-28"/>
      <point x="169" y="-44"/>
      <point x="211" y="-55"/>
    </contour>
  </outline>
</glyph>
<glyph name="M" format="2">
  <advance width="2475"/>
  <unicode hex="004D"/>
  <outline>
    <contour>
      <point x="2645" y="-345" type="line" smooth="yes"/>
      <point x="2642" y="-347"/>
      <point x="2594" y="-371"/>
      <point x="2516" y="-399"/>
      <point x="2416" y="-422"/>
      <point x="2362" y="-422" type="qcurve" smooth="yes"/>
      <point x="2274" y="-422"/>
      <point x="2134" y="-360"/>
      <point x="2037" y="-247"/>
      <point x="1985" y="-88"/>
      <point x="1985" y="9" type="qcurve" smooth="yes"/>
      <point x="1985" y="102"/>
      <point x="2031" y="325"/>
      <point x="2105" y="561"/>
      <point x="2198" y="797"/>
      <point x="2293" y="1010"/>
      <point x="2379" y="1187"/>
      <point x="2410" y="1246" type="qcurve"/>
      <point x="2354" y="1182"/>
      <point x="2210" y="1015"/>
      <point x="2047" y="816"/>
      <point x="1871" y="591"/>
      <point x="1692" y="348"/>
      <point x="1516" y="93"/>
      <point x="1436" y="-36" type="qcurve"/>
      <point x="1388" y="-20" type="line"/>
      <point x="1403" y="143"/>
      <point x="1472" y="464"/>
      <point x="1559" y="761"/>
      <point x="1656" y="1022"/>
      <point x="1700" y="1125" type="qcurve"/>
      <point x="1633" y="1033"/>
      <point x="1500" y="818"/>
      <point x="1364" y="591"/>
      <point x="1220" y="362"/>
      <point x="1064" y="151"/>
      <point x="891" y="-32"/>
      <point x="696" y="-167"/>
      <point x="475" y="-245"/>
      <point x="349" y="-245" type="qcurve" smooth="yes"/>
      <point x="252" y="-245"/>
      <point x="94" y="-187"/>
      <point x="-19" y="-86"/>
      <point x="-80" y="50"/>
      <point x="-80" y="129" type="qcurve" smooth="yes"/>
      <point x="-80" y="206"/>
      <point x="-31" y="331"/>
      <point x="51" y="428"/>
      <point x="160" y="499"/>
      <point x="280" y="545"/>
      <point x="403" y="567"/>
      <point x="459" y="567" type="qcurve" smooth="yes"/>
      <point x="575" y="567"/>
      <point x="787" y="512"/>
      <point x="885" y="442" type="qcurve"/>
      <point x="850" y="403" type="line"/>
      <point x="849" y="404"/>
      <point x="799" y="439"/>
      <point x="705" y="481"/>
      <point x="566" y="515"/>
      <point x="477" y="515" type="qcurve" smooth="yes"/>
      <point x="391" y="515"/>
      <point x="230" y="469"/>
      <point x="107" y="376"/>
      <point x="33" y="235"/>
      <point x="33" y="140" type="qcurve" smooth="yes"/>
      <point x="33" y="72"/>
      <point x="86" y="-44"/>
      <point x="180" y="-129"/>
      <point x="312" y="-177"/>
      <point x="392" y="-177" type="qcurve" smooth="yes"/>
      <point x="512" y="-177"/>
      <point x="732" y="-75"/>
      <point x="936" y="99"/>
      <point x="1125" y="331"/>
      <point x="1300" y="589"/>
      <point x="1464" y="861"/>
      <point x="1618" y="1114"/>
      <point x="1764" y="1335"/>
      <point x="1834" y="1415" type="qcurve"/>
      <point x="1879" y="1388" type="line"/>
      <point x="1835" y="1254"/>
      <point x="1771" y="1051"/>
      <point x="1724" y="897"/>
      <point x="1691" y="785"/>
      <point x="1667" y="697"/>
      <point x="1648" y="626"/>
      <point x="1629" y="556"/>
      <point x="1605" y="478"/>
      <point x="1571" y="375"/>
      <point x="1525" y="240"/>
      <point x="1492" y="148" type="qcurve"/>
      <point x="1576" y="275"/>
      <point x="1753" y="521"/>
      <point x="1929" y="751"/>
      <point x="2098" y="961"/>
      <point x="2249" y="1141"/>
      <point x="2376" y="1288"/>
      <point x="2470" y="1392"/>
      <point x="2523" y="1450"/>
      <point x="2524" y="1451" type="qcurve" smooth="yes"/>
      <point x="2566" y="1420" type="line"/>
      <point x="2507" y="1274"/>
      <point x="2391" y="981"/>
      <point x="2284" y="703"/>
      <point x="2192" y="445"/>
      <point x="2124" y="220"/>
      <point x="2085" y="35"/>
      <point x="2085" y="-31" type="qcurve" smooth="yes"/>
      <point x="2085" y="-109"/>
      <point x="2122" y="-235"/>
      <point x="2192" y="-323"/>
      <point x="2295" y="-370"/>
      <point x="2360" y="-370" type="qcurve" smooth="yes"/>
      <point x="2409" y="-370"/>
      <point x="2502" y="-348"/>
      <point x="2574" y="-322"/>
      <point x="2618" y="-300"/>
      <point x="2619" y="-300" type="qcurve" smooth="yes"/>
    </contour>
  </outline>
</glyph>
<glyph name="O" format="2">
  <advance width="1573"/>
  <unicode hex="004F"/>
  <outline>
    <contour>
      <point x="1395" y="1259" type="line" smooth="yes"/>
      <point x="1394" y="1261"/>
      <point x="1368" y="1301"/>
      <point x="1306" y="1347"/>
      <point x="1202" y="1384"/>
      <point x="1124" y="1384" type="qcurve" smooth="yes"/>
      <point x="1000" y="1384"/>
      <point x="759" y="1287"/>
      <point x="541" y="1119"/>
      <point x="356" y="894"/>
      <point x="220" y="639"/>
      <point x="144" y="368"/>
      <point x="144" y="238" type="qcurve" smooth="yes"/>
      <point x="144" y="147"/>
      <point x="201" y="-7"/>
      <point x="308" y="-118"/>
      <point x="462" y="-181"/>
      <point x="560" y="-181" type="qcurve" smooth="yes"/>
      <point x="646" y="-181"/>
      <point x="817" y="-131"/>
      <point x="979" y="-41"/>
      <point x="1128" y="84"/>
      <point x="1258" y="231"/>
      <point x="1364" y="396"/>
      <point x="1440" y="568"/>
      <point x="1481" y="742"/>
      <point x="1481" y="824" type="qcurve" smooth="yes"/>
      <point x="1481" y="910"/>
      <point x="1435" y="1042"/>
      <point x="1353" y="1131"/>
      <point x="1240" y="1176"/>
      <point x="1173" y="1176" type="qcurve" smooth="yes"/>
      <point x="1108" y="1176"/>
      <point x="978" y="1129"/>
      <point x="859" y="1044"/>
      <point x="756" y="928"/>
      <point x="680" y="791"/>
      <point x="637" y="636"/>
      <point x="637" y="556" type="qcurve" smooth="yes"/>
      <point x="637" y="495"/>
      <point x="667" y="392"/>
      <point x="717" y="312"/>
      <point x="782" y="259"/>
      <point x="817" y="249" type="qcurve"/>
      <point x="808" y="207" type="line"/>
      <point x="758" y="214"/>
      <point x="655" y="266"/>
      <point x="572" y="357"/>
      <point x="519" y="490"/>
      <point x="519" y="577" type="qcurve" smooth="yes"/>
      <point x="519" y="659"/>
      <point x="567" y="820"/>
      <point x="654" y="965"/>
      <point x="774" y="1088"/>
      <point x="919" y="1177"/>
      <point x="1084" y="1228"/>
      <point x="1171" y="1228" type="qcurve" smooth="yes"/>
      <point x="1254" y="1228"/>
      <point x="1388" y="1171"/>
      <point x="1482" y="1066"/>
      <point x="1533" y="916"/>
      <point x="1533" y="823" type="qcurve" smooth="yes"/>
      <point x="1533" y="735"/>
      <point x="1490" y="550"/>
      <point x="1411" y="369"/>
      <point x="1299" y="196"/>
      <point x="1163" y="42"/>
      <point x="1006" y="-87"/>
      <point x="834" y="-181"/>
      <point x="652" y="-233"/>
      <point x="560" y="-233" type="qcurve" smooth="yes"/>
      <point x="453" y="-233"/>
      <point x="263" y="-162"/>
      <point x="122" y="-24"/>
      <point x="40" y="177"/>
      <point x="40" y="307" type="qcurve" smooth="yes"/>
      <point x="40" y="452"/>
      <point x="115" y="732"/>
      <point x="252" y="983"/>
      <point x="444" y="1195"/>
      <point x="678" y="1349"/>
      <point x="948" y="1436"/>
      <point x="1094" y="1436" type="qcurve" smooth="yes"/>
      <point x="1162" y="1436"/>
      <point x="1266" y="1414"/>
      <point x="1343" y="1381"/>
      <point x="1395" y="1342"/>
      <point x="1427" y="1307"/>
      <point x="1441" y="1283"/>
      <point x="1442" y="1281" type="qcurve"/>
    </contour>
  </outline>
</glyph>
<glyph name="P" format="2">
  <advance width="1795"/>
  <unicode hex="0050"/>
  <outline>
    <contour>
      <point x="1862" y="1461" type="line"/>
      <point x="1790" y="1407"/>
      <point x="1727" y="1332" type="qcurve"/>
      <point x="1788" y="1294"/>
      <point x="1872" y="1203"/>
      <point x="1923" y="1109"/>
      <point x="1945" y="1017"/>
      <point x="1945" y="978" type="qcurve" smooth="yes"/>
      <point x="1945" y="880"/>
      <point x="1871" y="735"/>
      <point x="1750" y="639"/>
      <point x="1593" y="592"/>
      <point x="1509" y="592" type="qcurve" smooth="yes"/>
      <point x="1415" y="592"/>
      <point x="1324" y="613" type="qcurve"/>
      <point x="1282" y="524"/>
      <point x="1184" y="348"/>
      <point x="1069" y="187"/>
      <point x="934" y="48"/>
      <point x="779" y="-53"/>
      <point x="599" y="-111"/>
      <point x="497" y="-111" type="qcurve" smooth="yes"/>
      <point x="398" y="-111"/>
      <point x="230" y="-47"/>
      <point x="108" y="76"/>
      <point x="40" y="253"/>
      <point x="40" y="367" type="qcurve" smooth="yes"/>
      <point x="40" y="515"/>
      <point x="141" y="789"/>
      <point x="318" y="1027"/>
      <point x="558" y="1221"/>
      <point x="836" y="1359"/>
      <point x="1140" y="1435"/>
      <point x="1292" y="1435" type="qcurve" smooth="yes"/>
      <point x="1411" y="1435"/>
      <point x="1596" y="1396"/>
      <point x="1667" y="1364" type="qcurve"/>
      <point x="1707" y="1399"/>
      <point x="1795" y="1460"/>
      <point x="1846" y="1484" type="qcurve"/>
    </contour>
    <contour>
      <point x="1240" y="696" type="qcurve"/>
      <point x="1286" y="792"/>
      <point x="1376" y="969"/>
      <point x="1469" y="1128"/>
      <point x="1569" y="1267"/>
      <point x="1627" y="1326" type="qcurve"/>
      <point x="1561" y="1352"/>
      <point x="1406" y="1376"/>
      <point x="1318" y="1376" type="qcurve" smooth="yes"/>
      <point x="1197" y="1376"/>
      <point x="965" y="1318"/>
      <point x="750" y="1217"/>
      <point x="555" y="1079"/>
      <point x="388" y="917"/>
      <point x="253" y="740"/>
      <point x="158" y="560"/>
      <point x="107" y="385"/>
      <point x="107" y="306" type="qcurve" smooth="yes"/>
      <point x="107" y="229"/>
      <point x="163" y="96"/>
      <point x="262" y="-2"/>
      <point x="399" y="-58"/>
      <point x="481" y="-58" type="qcurve" smooth="yes"/>
      <point x="608" y="-58"/>
      <point x="810" y="42"/>
      <point x="982" y="227"/>
      <point x="1136" y="487"/>
      <point x="1216" y="647" type="qcurve"/>
      <point x="1112" y="688"/>
      <point x="1023" y="752" type="qcurve"/>
      <point x="1039" y="780" type="line"/>
      <point x="1087" y="756"/>
      <point x="1186" y="713"/>
    </contour>
    <contour>
      <point x="1840" y="1035" type="qcurve" smooth="yes"/>
      <point x="1840" y="1124"/>
      <point x="1763" y="1250"/>
      <point x="1694" y="1292" type="qcurve"/>
      <point x="1603" y="1174"/>
      <point x="1438" y="861"/>
      <point x="1350" y="669" type="qcurve"/>
      <point x="1379" y="664"/>
      <point x="1437" y="659"/>
      <point x="1467" y="659" type="qcurve" smooth="yes"/>
      <point x="1543" y="659"/>
      <point x="1678" y="713"/>
      <point x="1780" y="812"/>
      <point x="1840" y="950"/>
    </contour>
  </outline>
</glyph>
<glyph name="Q" format="2">
  <advance width="1518"/>
  <unicode hex="0051"/>
  <outline>
    <contour>
      <point x="1516" y="-420" type="line"/>
      <point x="1439" y="-462"/>
      <point x="1294" y="-497"/>
      <point x="1236" y="-497" type="qcurve" smooth="yes"/>
      <point x="1148" y="-497"/>
      <point x="1025" y="-433"/>
      <point x="937" y="-331"/>
      <point x="876" y="-203"/>
      <point x="851" y="-138" type="qcurve"/>
      <point x="779" y="-172"/>
      <point x="628" y="-209"/>
      <point x="548" y="-209" type="qcurve" smooth="yes"/>
      <point x="444" y="-209"/>
      <point x="259" y="-143"/>
      <point x="121" y="-9"/>
      <point x="40" y="194"/>
      <point x="40" y="330" type="qcurve" smooth="yes"/>
      <point x="40" y="476"/>
      <point x="116" y="763"/>
      <point x="255" y="1024"/>
      <point x="450" y="1247"/>
      <point x="689" y="1410"/>
      <point x="964" y="1503"/>
      <point x="1114" y="1503" type="qcurve" smooth="yes"/>
      <point x="1204" y="1503"/>
      <point x="1335" y="1456"/>
      <point x="1428" y="1384"/>
      <point x="1487" y="1299"/>
      <point x="1520" y="1225"/>
      <point x="1532" y="1173"/>
      <point x="1533" y="1169" type="qcurve"/>
      <point x="1482" y="1159" type="line" smooth="yes"/>
      <point x="1481" y="1161"/>
      <point x="1471" y="1206"/>
      <point x="1445" y="1271"/>
      <point x="1398" y="1346"/>
      <point x="1321" y="1410"/>
      <point x="1210" y="1452"/>
      <point x="1134" y="1452" type="qcurve" smooth="yes"/>
      <point x="1019" y="1452"/>
      <point x="783" y="1358"/>
      <point x="564" y="1193"/>
      <point x="373" y="972"/>
      <point x="230" y="717"/>
      <point x="148" y="443"/>
      <point x="148" y="308" type="qcurve" smooth="yes"/>
      <point x="148" y="189"/>
      <point x="212" y="14"/>
      <point x="321" y="-101"/>
      <point x="468" y="-157"/>
      <point x="551" y="-157" type="qcurve" smooth="yes"/>
      <point x="624" y="-157"/>
      <point x="765" y="-121"/>
      <point x="832" y="-89" type="qcurve"/>
      <point x="813" y="-41"/>
      <point x="774" y="46"/>
      <point x="725" y="112"/>
      <point x="664" y="151"/>
      <point x="623" y="151" type="qcurve" smooth="yes"/>
      <point x="594" y="151"/>
      <point x="543" y="142"/>
      <point x="504" y="130"/>
      <point x="481" y="121"/>
      <point x="481" y="121" type="qcurve"/>
      <point x="461" y="169" type="line" smooth="yes"/>
      <point x="463" y="170"/>
      <point x="495" y="181"/>
      <point x="545" y="194"/>
      <point x="610" y="205"/>
      <point x="646" y="205" type="qcurve" smooth="yes"/>
      <point x="709" y="205"/>
      <point x="801" y="167"/>
      <point x="867" y="102"/>
      <point x="914" y="16"/>
      <point x="934" y="-32" type="qcurve"/>
      <point x="1005" y="15"/>
      <point x="1133" y="137"/>
      <point x="1242" y="277"/>
      <point x="1329" y="433"/>
      <point x="1391" y="595"/>
      <point x="1424" y="758"/>
      <point x="1424" y="837" type="qcurve" smooth="yes"/>
      <point x="1424" y="923"/>
      <point x="1380" y="1073"/>
      <point x="1300" y="1184"/>
      <point x="1187" y="1247"/>
      <point x="1117" y="1247" type="qcurve" smooth="yes"/>
      <point x="1045" y="1247"/>
      <point x="909" y="1183"/>
      <point x="804" y="1069"/>
      <point x="741" y="912"/>
      <point x="741" y="820" type="qcurve" smooth="yes"/>
      <point x="741" y="734"/>
      <point x="813" y="576"/>
      <point x="892" y="520" type="qcurve"/>
      <point x="867" y="486" type="line"/>
      <point x="822" y="502"/>
      <point x="738" y="561"/>
      <point x="674" y="645"/>
      <point x="635" y="753"/>
      <point x="635" y="819" type="qcurve" smooth="yes"/>
      <point x="635" y="928"/>
      <point x="713" y="1105"/>
      <point x="845" y="1231"/>
      <point x="1017" y="1300"/>
      <point x="1110" y="1300" type="qcurve" smooth="yes"/>
      <point x="1196" y="1300"/>
      <point x="1332" y="1229"/>
      <point x="1426" y="1105"/>
      <point x="1476" y="938"/>
      <point x="1476" y="841" type="qcurve" smooth="yes"/>
      <point x="1476" y="759"/>
      <point x="1441" y="585"/>
      <point x="1376" y="413"/>
      <point x="1284" y="248"/>
      <point x="1167" y="98"/>
      <point x="1030" y="-32"/>
      <point x="953" y="-81" type="qcurve"/>
      <point x="968" y="-123"/>
      <point x="1000" y="-206"/>
      <point x="1038" y="-283"/>
      <point x="1087" y="-349"/>
      <point x="1152" y="-397"/>
      <point x="1238" y="-425"/>
      <point x="1294" y="-425" type="qcurve" smooth="yes"/>
      <point x="1334" y="-425"/>
      <point x="1406" y="-410"/>
      <point x="1459" y="-391"/>
      <point x="1490" y="-375"/>
      <point x="1490" y="-375" type="qcurve"/>
    </contour>
  </outline>
</glyph>
<glyph name="R" format="2">
  <advance width="2167"/>
  <unicode hex="0052"/>
  <outline>
    <contour>
      <point x="1813" y="1437" type="line"/>
      <point x="1748" y="1400"/>
      <point x="1691" y="1346" type="qcurve"/>
      <point x="1753" y="1319"/>
      <point x="1858" y="1239"/>
      <point x="1935" y="1133"/>
      <point x="1978" y="1000"/>
      <point x="1978" y="920" type="qcurve" smooth="yes"/>
      <point x="1978" y="852"/>
      <point x="1931" y="731"/>
      <point x="1848" y="634"/>
      <point x="1733" y="567"/>
      <point x="1665" y="554" type="qcurve"/>
      <point x="1698" y="509"/>
      <point x="1739" y="400"/>
      <point x="1739" y="336" type="qcurve" smooth="yes"/>
      <point x="1739" y="310"/>
      <point x="1725" y="239"/>
      <point x="1704" y="161"/>
      <point x="1679" y="82"/>
      <point x="1658" y="14"/>
      <point x="1644" y="-38"/>
      <point x="1644" y="-50" type="qcurve" smooth="yes"/>
      <point x="1644" y="-79"/>
      <point x="1677" y="-112"/>
      <point x="1706" y="-112" type="qcurve" smooth="yes"/>
      <point x="1759" y="-112"/>
      <point x="1853" y="-67"/>
      <point x="1936" y="8"/>
      <point x="2010" y="107"/>
      <point x="2077" y="215"/>
      <point x="2138" y="324"/>
      <point x="2167" y="373" type="qcurve"/>
      <point x="2204" y="345" type="line"/>
      <point x="2141" y="233"/>
      <point x="2030" y="46"/>
      <point x="1914" y="-89"/>
      <point x="1784" y="-165"/>
      <point x="1701" y="-165" type="qcurve" smooth="yes"/>
      <point x="1624" y="-165"/>
      <point x="1539" y="-80"/>
      <point x="1539" y="-2" type="qcurve" smooth="yes"/>
      <point x="1539" y="52"/>
      <point x="1571" y="150"/>
      <point x="1610" y="244"/>
      <point x="1642" y="338"/>
      <point x="1642" y="389" type="qcurve" smooth="yes"/>
      <point x="1642" y="434"/>
      <point x="1613" y="512"/>
      <point x="1587" y="547" type="qcurve"/>
      <point x="1556" y="547"/>
      <point x="1477" y="553"/>
      <point x="1406" y="571"/>
      <point x="1358" y="605"/>
      <point x="1358" y="633" type="qcurve" smooth="yes"/>
      <point x="1358" y="658"/>
      <point x="1398" y="689"/>
      <point x="1437" y="689" type="qcurve" smooth="yes"/>
      <point x="1482" y="689"/>
      <point x="1566" y="648"/>
      <point x="1607" y="615" type="qcurve"/>
      <point x="1665" y="628"/>
      <point x="1765" y="696"/>
      <point x="1838" y="791"/>
      <point x="1879" y="907"/>
      <point x="1879" y="968" type="qcurve" smooth="yes"/>
      <point x="1879" y="1031"/>
      <point x="1845" y="1136"/>
      <point x="1783" y="1220"/>
      <point x="1699" y="1283"/>
      <point x="1649" y="1304" type="qcurve"/>
      <point x="1573" y="1221"/>
      <point x="1447" y="1006"/>
      <point x="1332" y="767"/>
      <point x="1224" y="518"/>
      <point x="1107" y="283"/>
      <point x="974" y="75"/>
      <point x="813" y="-81"/>
      <point x="616" y="-171"/>
      <point x="493" y="-171" type="qcurve" smooth="yes"/>
      <point x="397" y="-171"/>
      <point x="229" y="-111"/>
      <point x="103" y="6"/>
      <point x="30" y="178"/>
      <point x="30" y="290" type="qcurve" smooth="yes"/>
      <point x="30" y="358"/>
      <point x="63" y="526"/>
      <point x="135" y="709"/>
      <point x="248" y="896"/>
      <point x="407" y="1072"/>
      <point x="616" y="1226"/>
      <point x="879" y="1341"/>
      <point x="1199" y="1407"/>
      <point x="1390" y="1407" type="qcurve" smooth="yes"/>
      <point x="1455" y="1407"/>
      <point x="1583" y="1386"/>
      <point x="1643" y="1366" type="qcurve"/>
      <point x="1678" y="1393"/>
      <point x="1754" y="1442"/>
      <point x="1796" y="1464" type="qcurve"/>
    </contour>
    <contour>
      <point x="468" y="-118" type="qcurve" smooth="yes"/>
      <point x="576" y="-118"/>
      <point x="744" y="-32"/>
      <point x="880" y="115"/>
      <point x="993" y="314"/>
      <point x="1100" y="539"/>
      <point x="1209" y="782"/>
      <point x="1337" y="1018"/>
      <point x="1493" y="1236"/>
      <point x="1594" y="1325" type="qcurve"/>
      <point x="1502" y="1352"/>
      <point x="1401" y="1352" type="qcurve" smooth="yes"/>
      <point x="1215" y="1352"/>
      <point x="880" y="1252"/>
      <point x="593" y="1082"/>
      <point x="362" y="858"/>
      <point x="199" y="611"/>
      <point x="111" y="354"/>
      <point x="111" y="237" type="qcurve" smooth="yes"/>
      <point x="111" y="164"/>
      <point x="162" y="34"/>
      <point x="256" y="-62"/>
      <point x="388" y="-118"/>
    </contour>
    <contour>
      <point x="1536" y="602" type="qcurve"/>
      <point x="1511" y="619"/>
      <point x="1455" y="643"/>
      <point x="1434" y="643" type="qcurve" smooth="yes"/>
      <point x="1420" y="643"/>
      <point x="1410" y="635"/>
      <point x="1410" y="630" type="qcurve" smooth="yes"/>
      <point x="1410" y="621"/>
      <point x="1436" y="610"/>
      <point x="1475" y="603"/>
      <point x="1518" y="601"/>
    </contour>
  </outline>
</glyph>
<glyph name="T" format="2">
  <advance width="1562"/>
  <unicode hex="0054"/>
  <outline>
    <contour>
      <point x="2282" y="1420" type="line"/>
      <point x="2217" y="1378"/>
      <point x="2076" y="1321"/>
      <point x="1926" y="1287"/>
      <point x="1768" y="1273"/>
      <point x="1687" y="1273" type="qcurve" smooth="yes"/>
      <point x="1585" y="1273"/>
      <point x="1359" y="1294"/>
      <point x="1136" y="1318"/>
      <point x="928" y="1339"/>
      <point x="844" y="1339" type="qcurve" smooth="yes"/>
      <point x="721" y="1339"/>
      <point x="519" y="1276"/>
      <point x="375" y="1161"/>
      <point x="296" y="1000"/>
      <point x="296" y="901" type="qcurve" smooth="yes"/>
      <point x="296" y="832"/>
      <point x="343" y="721"/>
      <point x="430" y="645"/>
      <point x="552" y="604"/>
      <point x="626" y="604" type="qcurve" smooth="yes"/>
      <point x="690" y="604"/>
      <point x="826" y="635"/>
      <point x="892" y="666" type="qcurve"/>
      <point x="913" y="625" type="line"/>
      <point x="846" y="586"/>
      <point x="671" y="540"/>
      <point x="582" y="540" type="qcurve" smooth="yes"/>
      <point x="505" y="540"/>
      <point x="363" y="584"/>
      <point x="252" y="673"/>
      <point x="186" y="808"/>
      <point x="186" y="899" type="qcurve" smooth="yes"/>
      <point x="186" y="989"/>
      <point x="240" y="1132"/>
      <point x="334" y="1243"/>
      <point x="460" y="1321"/>
      <point x="605" y="1372"/>
      <point x="761" y="1395"/>
      <point x="838" y="1395" type="qcurve" smooth="yes"/>
      <point x="930" y="1395"/>
      <point x="1141" y="1373"/>
      <point x="1361" y="1348"/>
      <point x="1583" y="1326"/>
      <point x="1687" y="1326" type="qcurve" smooth="yes"/>
      <point x="1765" y="1326"/>
      <point x="1917" y="1339"/>
      <point x="2060" y="1371"/>
      <point x="2193" y="1424"/>
      <point x="2254" y="1464" type="qcurve"/>
    </contour>
    <contour>
      <point x="1580" y="1185" type="line"/>
      <point x="1495" y="1083"/>
      <point x="1364" y="860"/>
      <point x="1253" y="636"/>
      <point x="1153" y="417"/>
      <point x="1045" y="220"/>
      <point x="922" y="53"/>
      <point x="765" y="-69"/>
      <point x="564" y="-138"/>
      <point x="434" y="-138" type="qcurve" smooth="yes"/>
      <point x="319" y="-138"/>
      <point x="142" y="-79"/>
      <point x="22" y="24"/>
      <point x="-40" y="163"/>
      <point x="-40" y="244" type="qcurve" smooth="yes"/>
      <point x="-40" y="275"/>
      <point x="-32" y="331"/>
      <point x="-24" y="354" type="qcurve"/>
      <point x="26" y="339" type="line"/>
      <point x="20" y="319"/>
      <point x="12" y="270"/>
      <point x="12" y="244" type="qcurve" smooth="yes"/>
      <point x="12" y="161"/>
      <point x="82" y="37"/>
      <point x="196" y="-45"/>
      <point x="342" y="-86"/>
      <point x="418" y="-86" type="qcurve" smooth="yes"/>
      <point x="528" y="-86"/>
      <point x="699" y="-10"/>
      <point x="839" y="121"/>
      <point x="954" y="297"/>
      <point x="1062" y="499"/>
      <point x="1171" y="717"/>
      <point x="1298" y="931"/>
      <point x="1450" y="1130"/>
      <point x="1548" y="1212" type="qcurve"/>
    </contour>
  </outline>
</glyph>
<glyph name="U" format="2">
  <advance width="2374"/>
  <unicode hex="0055"/>
  <outline>
    <contour>
      <point x="2411" y="345" type="line"/>
      <point x="2388" y="307"/>
      <point x="2326" y="216"/>
      <point x="2250" y="122"/>
      <point x="2161" y="34"/>
      <point x="2061" y="-34"/>
      <point x="1953" y="-75"/>
      <point x="1895" y="-75" type="qcurve" smooth="yes"/>
      <point x="1843" y="-75"/>
      <point x="1767" y="-42"/>
      <point x="1717" y="13"/>
      <point x="1693" y="85"/>
      <point x="1693" y="125" type="qcurve" smooth="yes"/>
      <point x="1693" y="182"/>
      <point x="1711" y="250" type="qcurve"/>
      <point x="1623" y="146"/>
      <point x="1465" y="-8"/>
      <point x="1310" y="-109"/>
      <point x="1151" y="-159"/>
      <point x="1061" y="-159" type="qcurve" smooth="yes"/>
      <point x="1005" y="-159"/>
      <point x="908" y="-129"/>
      <point x="836" y="-70"/>
      <point x="794" y="18"/>
      <point x="794" y="77" type="qcurve" smooth="yes"/>
      <point x="794" y="151"/>
      <point x="864" y="304"/>
      <point x="968" y="457"/>
      <point x="1091" y="611"/>
      <point x="1195" y="763"/>
      <point x="1265" y="913"/>
      <point x="1265" y="986" type="qcurve" smooth="yes"/>
      <point x="1265" y="1050"/>
      <point x="1212" y="1171"/>
      <point x="1098" y="1263"/>
      <point x="920" y="1319"/>
      <point x="795" y="1319" type="qcurve" smooth="yes"/>
      <point x="690" y="1319"/>
      <point x="516" y="1279"/>
      <point x="378" y="1209"/>
      <point x="276" y="1114"/>
      <point x="208" y="1006"/>
      <point x="175" y="888"/>
      <point x="175" y="830" type="qcurve" smooth="yes"/>
      <point x="175" y="753"/>
      <point x="231" y="647"/>
      <point x="320" y="582"/>
      <point x="432" y="553"/>
      <point x="488" y="553" type="qcurve" smooth="yes"/>
      <point x="548" y="553"/>
      <point x="656" y="581"/>
      <point x="737" y="615"/>
      <point x="785" y="643"/>
      <point x="786" y="644" type="qcurve"/>
      <point x="812" y="606" type="line"/>
      <point x="733" y="543"/>
      <point x="536" y="473"/>
      <point x="438" y="473" type="qcurve" smooth="yes"/>
      <point x="367" y="473"/>
      <point x="231" y="514"/>
      <point x="125" y="600"/>
      <point x="60" y="735"/>
      <point x="60" y="828" type="qcurve" smooth="yes"/>
      <point x="60" y="935"/>
      <point x="165" y="1132"/>
      <point x="357" y="1282"/>
      <point x="629" y="1372"/>
      <point x="796" y="1372" type="qcurve" smooth="yes"/>
      <point x="913" y="1372"/>
      <point x="1114" y="1314"/>
      <point x="1261" y="1205"/>
      <point x="1345" y="1051"/>
      <point x="1346" y="955" type="qcurve" smooth="yes"/>
      <point x="1347" y="868"/>
      <point x="1279" y="698"/>
      <point x="1176" y="534"/>
      <point x="1056" y="380"/>
      <point x="953" y="239"/>
      <point x="884" y="114"/>
      <point x="884" y="61" type="qcurve" smooth="yes"/>
      <point x="884" y="30"/>
      <point x="907" y="-29"/>
      <point x="957" y="-74"/>
      <point x="1032" y="-102"/>
      <point x="1085" y="-102" type="qcurve" smooth="yes"/>
      <point x="1201" y="-102"/>
      <point x="1411" y="18"/>
      <point x="1611" y="225"/>
      <point x="1806" y="502"/>
      <point x="2009" y="817"/>
      <point x="2227" y="1153"/>
      <point x="2349" y="1315" type="qcurve"/>
      <point x="2394" y="1290" type="line"/>
      <point x="2336" y="1181"/>
      <point x="2199" y="940"/>
      <point x="2062" y="700"/>
      <point x="1934" y="471"/>
      <point x="1835" y="277"/>
      <point x="1776" y="128"/>
      <point x="1776" y="88" type="qcurve" smooth="yes"/>
      <point x="1776" y="32"/>
      <point x="1845" y="-23"/>
      <point x="1893" y="-23" type="qcurve" smooth="yes"/>
      <point x="1943" y="-23"/>
      <point x="2038" y="15"/>
      <point x="2128" y="78"/>
      <point x="2210" y="159"/>
      <point x="2284" y="247"/>
      <point x="2348" y="335"/>
      <point x="2374" y="373" type="qcurve"/>
    </contour>
  </outline>
</glyph>
<glyph name="V" format="2">
  <advance width="2216"/>
  <unicode hex="0056"/>
  <outline>
    <contour>
      <point x="1065" y="772" type="line"/>
      <point x="1019" y="692"/>
      <point x="900" y="532"/>
      <point x="753" y="403"/>
      <point x="575" y="322"/>
      <point x="470" y="322" type="qcurve" smooth="yes"/>
      <point x="384" y="322"/>
      <point x="234" y="375"/>
      <point x="123" y="479"/>
      <point x="60" y="630"/>
      <point x="60" y="729" type="qcurve" smooth="yes"/>
      <point x="60" y="850"/>
      <point x="135" y="1053"/>
      <point x="263" y="1216"/>
      <point x="433" y="1339"/>
      <point x="625" y="1422"/>
      <point x="828" y="1463"/>
      <point x="924" y="1462" type="qcurve" smooth="yes"/>
      <point x="1028" y="1461"/>
      <point x="1227" y="1403"/>
      <point x="1382" y="1284"/>
      <point x="1476" y="1102"/>
      <point x="1476" y="978" type="qcurve" smooth="yes"/>
      <point x="1476" y="892"/>
      <point x="1416" y="679"/>
      <point x="1342" y="550" type="qcurve" smooth="yes"/>
      <point x="1256" y="400"/>
      <point x="1130" y="189"/>
      <point x="1047" y="46"/>
      <point x="1007" y="-39"/>
      <point x="1007" y="-64" type="qcurve" smooth="yes"/>
      <point x="1007" y="-88"/>
      <point x="1050" y="-116"/>
      <point x="1089" y="-116" type="qcurve" smooth="yes"/>
      <point x="1142" y="-116"/>
      <point x="1286" y="-60"/>
      <point x="1373" y="-4" type="qcurve" smooth="yes"/>
      <point x="1452" y="46"/>
      <point x="1606" y="176"/>
      <point x="1753" y="323"/>
      <point x="1890" y="481"/>
      <point x="2012" y="638"/>
      <point x="2116" y="788"/>
      <point x="2157" y="854" type="qcurve"/>
      <point x="2137" y="916"/>
      <point x="2119" y="1029"/>
      <point x="2119" y="1079" type="qcurve" smooth="yes"/>
      <point x="2119" y="1140"/>
      <point x="2141" y="1235"/>
      <point x="2178" y="1300"/>
      <point x="2229" y="1334"/>
      <point x="2258" y="1334" type="qcurve" smooth="yes"/>
      <point x="2283" y="1334"/>
      <point x="2320" y="1311"/>
      <point x="2344" y="1275"/>
      <point x="2356" y="1229"/>
      <point x="2356" y="1206" type="qcurve" smooth="yes"/>
      <point x="2356" y="1171"/>
      <point x="2332" y="1071"/>
      <point x="2300" y="1003" type="qcurve" smooth="yes"/>
      <point x="2273" y="945"/>
      <point x="2175" y="781"/>
      <point x="2042" y="590"/>
      <point x="1881" y="386"/>
      <point x="1699" y="191"/>
      <point x="1502" y="17"/>
      <point x="1401" y="-48" type="qcurve" smooth="yes"/>
      <point x="1294" y="-117"/>
      <point x="1142" y="-169"/>
      <point x="1090" y="-169" type="qcurve" smooth="yes"/>
      <point x="1043" y="-169"/>
      <point x="980" y="-141"/>
      <point x="942" y="-94"/>
      <point x="926" y="-36"/>
      <point x="926" y="-6" type="qcurve" smooth="yes"/>
      <point x="926" y="30"/>
      <point x="948" y="110"/>
      <point x="971" y="148" type="qcurve" smooth="yes"/>
      <point x="998" y="193"/>
      <point x="1080" y="323"/>
      <point x="1173" y="477"/>
      <point x="1267" y="648"/>
      <point x="1342" y="819"/>
      <point x="1389" y="983"/>
      <point x="1389" y="1053" type="qcurve" smooth="yes"/>
      <point x="1389" y="1121"/>
      <point x="1328" y="1249"/>
      <point x="1209" y="1349"/>
      <point x="1035" y="1410"/>
      <point x="921" y="1410" type="qcurve" smooth="yes"/>
      <point x="819" y="1410"/>
      <point x="630" y="1361"/>
      <point x="464" y="1273"/>
      <point x="327" y="1150"/>
      <point x="229" y="1003"/>
      <point x="175" y="836"/>
      <point x="175" y="748" type="qcurve" smooth="yes"/>
      <point x="175" y="664"/>
      <point x="228" y="535"/>
      <point x="318" y="449"/>
      <point x="436" y="405"/>
      <point x="501" y="405" type="qcurve" smooth="yes"/>
      <point x="571" y="405"/>
      <point x="713" y="459"/>
      <point x="848" y="561"/>
      <point x="972" y="706"/>
      <point x="1025" y="796" type="qcurve"/>
    </contour>
    <contour>
      <point x="2193" y="915" type="qcurve"/>
      <point x="2227" y="972"/>
      <point x="2270" y="1062"/>
      <point x="2294" y="1132"/>
      <point x="2303" y="1185"/>
      <point x="2303" y="1205" type="qcurve" smooth="yes"/>
      <point x="2303" y="1217"/>
      <point x="2299" y="1244"/>
      <point x="2288" y="1267"/>
      <point x="2269" y="1281"/>
      <point x="2253" y="1281" type="qcurve" smooth="yes"/>
      <point x="2235" y="1281"/>
      <point x="2205" y="1248"/>
      <point x="2183" y="1193"/>
      <point x="2171" y="1120"/>
      <point x="2171" y="1078" type="qcurve" smooth="yes"/>
      <point x="2171" y="1042"/>
      <point x="2181" y="960"/>
    </contour>
  </outline>
</glyph>
<glyph name="X" format="2">
  <advance width="2570"/>
  <unicode hex="0058"/>
  <outline>
    <contour>
      <point x="1199" y="662" type="line"/>
      <point x="1103" y="559"/>
      <point x="856" y="456"/>
      <point x="728" y="456" type="qcurve" smooth="yes"/>
      <point x="639" y="456"/>
      <point x="478" y="506"/>
      <point x="354" y="602"/>
      <point x="281" y="744"/>
      <point x="281" y="837" type="qcurve" smooth="yes"/>
      <point x="281" y="929"/>
      <point x="338" y="1079"/>
      <point x="436" y="1197"/>
      <point x="566" y="1283"/>
      <point x="711" y="1340"/>
      <point x="862" y="1368"/>
      <point x="933" y="1368" type="qcurve" smooth="yes"/>
      <point x="1098" y="1368"/>
      <point x="1343" y="1282"/>
      <point x="1504" y="1134"/>
      <point x="1584" y="935"/>
      <point x="1584" y="821" type="qcurve" smooth="yes"/>
      <point x="1584" y="779"/>
      <point x="1578" y="739" type="qcurve"/>
      <point x="1684" y="902"/>
      <point x="1913" y="1126"/>
      <point x="2134" y="1272"/>
      <point x="2334" y="1352"/>
      <point x="2488" y="1390"/>
      <point x="2584" y="1398"/>
      <point x="2590" y="1398" type="qcurve"/>
      <point x="2590" y="1345" type="line"/>
      <point x="2587" y="1345"/>
      <point x="2526" y="1341"/>
      <point x="2423" y="1321"/>
      <point x="2286" y="1279"/>
      <point x="2127" y="1203"/>
      <point x="1952" y="1086"/>
      <point x="1776" y="917"/>
      <point x="1603" y="689"/>
      <point x="1525" y="539" type="qcurve" smooth="yes"/>
      <point x="1486" y="464"/>
      <point x="1447" y="319"/>
      <point x="1447" y="252" type="qcurve" smooth="yes"/>
      <point x="1447" y="183"/>
      <point x="1487" y="60"/>
      <point x="1573" y="-36"/>
      <point x="1708" y="-97"/>
      <point x="1802" y="-104" type="qcurve"/>
      <point x="1833" y="-1"/>
      <point x="1927" y="177"/>
      <point x="2047" y="309"/>
      <point x="2189" y="384"/>
      <point x="2266" y="384" type="qcurve" smooth="yes"/>
      <point x="2300" y="384"/>
      <point x="2349" y="364"/>
      <point x="2382" y="331"/>
      <point x="2398" y="287"/>
      <point x="2398" y="262" type="qcurve" smooth="yes"/>
      <point x="2398" y="226"/>
      <point x="2362" y="139"/>
      <point x="2296" y="49"/>
      <point x="2202" y="-37"/>
      <point x="2087" y="-105"/>
      <point x="1953" y="-150"/>
      <point x="1879" y="-154" type="qcurve"/>
      <point x="1853" y="-224"/>
      <point x="1814" y="-374"/>
      <point x="1804" y="-453" type="qcurve"/>
      <point x="1752" y="-444" type="line"/>
      <point x="1752" y="-369"/>
      <point x="1771" y="-222"/>
      <point x="1788" y="-152" type="qcurve"/>
      <point x="1686" y="-144"/>
      <point x="1537" y="-74"/>
      <point x="1440" y="34"/>
      <point x="1393" y="173"/>
      <point x="1393" y="251" type="qcurve" smooth="yes"/>
      <point x="1393" y="273"/>
      <point x="1396" y="317"/>
      <point x="1400" y="340" type="qcurve"/>
      <point x="1319" y="238"/>
      <point x="1100" y="64"/>
      <point x="842" y="-63"/>
      <point x="552" y="-134"/>
      <point x="400" y="-134" type="qcurve" smooth="yes"/>
      <point x="295" y="-134"/>
      <point x="119" y="-103"/>
      <point x="-9" y="-39"/>
      <point x="-80" y="60"/>
      <point x="-80" y="128" type="qcurve" smooth="yes"/>
      <point x="-80" y="175"/>
      <point x="-50" y="247"/>
      <point x="-1" y="301"/>
      <point x="65" y="338"/>
      <point x="137" y="361"/>
      <point x="211" y="371"/>
      <point x="244" y="371" type="qcurve" smooth="yes"/>
      <point x="293" y="371"/>
      <point x="384" y="350"/>
      <point x="417" y="334" type="qcurve"/>
      <point x="395" y="295" type="line"/>
      <point x="370" y="304"/>
      <point x="309" y="319"/>
      <point x="269" y="319" type="qcurve" smooth="yes"/>
      <point x="214" y="319"/>
      <point x="126" y="289"/>
      <point x="65" y="237"/>
      <point x="32" y="169"/>
      <point x="32" y="131" type="qcurve" smooth="yes"/>
      <point x="32" y="33"/>
      <point x="220" y="-81"/>
      <point x="407" y="-81" type="qcurve" smooth="yes"/>
      <point x="526" y="-81"/>
      <point x="745" y="-28"/>
      <point x="941" y="64"/>
      <point x="1111" y="188"/>
      <point x="1253" y="329"/>
      <point x="1363" y="479"/>
      <point x="1439" y="625"/>
      <point x="1479" y="758"/>
      <point x="1479" y="812" type="qcurve" smooth="yes"/>
      <point x="1479" y="874"/>
      <point x="1458" y="998"/>
      <point x="1409" y="1110"/>
      <point x="1329" y="1207"/>
      <point x="1209" y="1278"/>
      <point x="1046" y="1319"/>
      <point x="940" y="1319" type="qcurve" smooth="yes"/>
      <point x="803" y="1319"/>
      <point x="599" y="1237"/>
      <point x="465" y="1107"/>
      <point x="399" y="944"/>
      <point x="399" y="862" type="qcurve" smooth="yes"/>
      <point x="399" y="779"/>
      <point x="458" y="653"/>
      <point x="560" y="569"/>
      <point x="698" y="526"/>
      <point x="776" y="526" type="qcurve" smooth="yes"/>
      <point x="837" y="526"/>
      <point x="942" y="551"/>
      <point x="1029" y="588"/>
      <point x="1097" y="632"/>
      <point x="1144" y="670"/>
      <point x="1168" y="695"/>
      <point x="1169" y="696" type="qcurve"/>
    </contour>
    <contour>
      <point x="2280" y="331" type="qcurve" smooth="yes"/>
      <point x="2239" y="331"/>
      <point x="2140" y="267"/>
      <point x="2038" y="151"/>
      <point x="1939" y="-8"/>
      <point x="1899" y="-103" type="qcurve"/>
      <point x="1959" y="-97"/>
      <point x="2073" y="-56"/>
      <point x="2172" y="3"/>
      <point x="2254" y="76"/>
      <point x="2313" y="153"/>
      <point x="2346" y="230"/>
      <point x="2346" y="264" type="qcurve" smooth="yes"/>
      <point x="2346" y="294"/>
      <point x="2307" y="331"/>
    </contour>
  </outline>
</glyph>
<glyph name="backslash" format="2">
  <advance width="584"/>
  <unicode hex="005C"/>
  <outline>
    <contour>
      <point x="322" y="-99" type="line"/>
      <point x="200" y="1444" type="line"/>
      <point x="262" y="1444" type="line"/>
      <point x="384" y="-99" type="line"/>
    </contour>
  </outline>
</glyph>
<glyph name="asciicircum" format="2">
  <advance width="1024"/>
  <unicode hex="005E"/>
  <outline>
    <contour>
      <point x="710" y="878" type="line"/>
      <point x="682" y="1347" type="line"/>
      <point x="327" y="878" type="line"/>
      <point x="242" y="878" type="line"/>
      <point x="680" y="1444" type="line"/>
      <point x="742" y="1444" type="line"/>
      <point x="784" y="878" type="line"/>
    </contour>
  </outline>
</glyph>
<glyph name="e" format="2">
  <advance width="730"/>
  <unicode hex="0065"/>
  <outline>
    <contour>
      <point x="76" y="228" type="qcurve"/>
      <point x="74" y="216"/>
      <point x="72" y="192"/>
      <point x="72" y="180" type="qcurve" smooth="yes"/>
      <point x="72" y="144"/>
      <point x="93" y="79"/>
      <point x="134" y="30"/>
      <point x="195" y="2"/>
      <point x="234" y="2" type="qcurve" smooth="yes"/>
      <point x="365" y="2"/>
      <point x="609" y="180"/>
      <point x="730" y="373" type="qcurve"/>
      <point x="764" y="343" type="line"/>
      <point x="698" y="233"/>
      <point x="562" y="82"/>
      <point x="427" y="-12"/>
      <point x="297" y="-54"/>
      <point x="238" y="-54" type="qcurve" smooth="yes"/>
      <point x="195" y="-54"/>
      <point x="99" y="-30"/>
      <point x="18" y="26"/>
      <point x="-35" y="120"/>
      <point x="-35" y="190" type="qcurve" smooth="yes"/>
      <point x="-35" y="265"/>
      <point x="16" y="404"/>
      <point x="98" y="524"/>
      <point x="204" y="623"/>
      <point x="313" y="693"/>
      <point x="417" y="732"/>
      <point x="457" y="732" type="qcurve" smooth="yes"/>
      <point x="483" y="732"/>
      <point x="537" y="716"/>
      <point x="580" y="682"/>
      <point x="607" y="626"/>
      <point x="607" y="587" type="qcurve" smooth="yes"/>
      <point x="607" y="534"/>
      <point x="558" y="441"/>
      <point x="476" y="362"/>
      <point x="368" y="299"/>
      <point x="250" y="255"/>
      <point x="130" y="229"/>
    </contour>
    <contour>
      <point x="84" y="271" type="qcurve"/>
      <point x="151" y="278"/>
      <point x="269" y="320"/>
      <point x="367" y="381"/>
      <point x="444" y="453"/>
      <point x="496" y="527"/>
      <point x="524" y="595"/>
      <point x="524" y="622" type="qcurve" smooth="yes"/>
      <point x="524" y="649"/>
      <point x="495" y="681"/>
      <point x="475" y="681" type="qcurve" smooth="yes"/>
      <point x="431" y="681"/>
      <point x="321" y="618"/>
      <point x="211" y="507"/>
      <point x="114" y="357"/>
    </contour>
  </outline>
</glyph>
<glyph name="h" format="2">
  <advance width="859"/>
  <unicode hex="0068"/>
  <outline>
    <contour>
      <point x="136" y="391" type="line"/>
      <point x="189" y="463"/>
      <point x="303" y="584"/>
      <point x="419" y="672"/>
      <point x="532" y="721"/>
      <point x="585" y="721" type="qcurve" smooth="yes"/>
      <point x="621" y="721"/>
      <point x="668" y="699"/>
      <point x="695" y="664"/>
      <point x="706" y="622"/>
      <point x="706" y="601" type="qcurve" smooth="yes"/>
      <point x="706" y="565"/>
      <point x="676" y="482"/>
      <point x="631" y="392"/>
      <point x="579" y="298"/>
      <point x="534" y="208"/>
      <point x="504" y="123"/>
      <point x="504" y="86" type="qcurve" smooth="yes"/>
      <point x="504" y="63"/>
      <point x="525" y="24"/>
      <point x="552" y="24" type="qcurve" smooth="yes"/>
      <point x="584" y="24"/>
      <point x="662" y="89"/>
      <point x="743" y="190"/>
      <point x="824" y="314"/>
      <point x="859" y="373" type="qcurve"/>
      <point x="895" y="345" type="line"/>
      <point x="884" y="330"/>
      <point x="846" y="263"/>
      <point x="795" y="180"/>
      <point x="732" y="92"/>
      <point x="661" y="19"/>
      <point x="583" y="-28"/>
      <point x="543" y="-28" type="qcurve" smooth="yes"/>
      <point x="517" y="-28"/>
      <point x="465" y="-16"/>
      <point x="423" y="16"/>
      <point x="397" y="71"/>
      <point x="397" y="113" type="qcurve" smooth="yes"/>
      <point x="397" y="162"/>
      <point x="430" y="263"/>
      <point x="479" y="362"/>
      <point x="537" y="455"/>
      <point x="586" y="537"/>
      <point x="619" y="604"/>
      <point x="619" y="627" type="qcurve" smooth="yes"/>
      <point x="619" y="668"/>
      <point x="579" y="668" type="qcurve" smooth="yes"/>
      <point x="522" y="668"/>
      <point x="395" y="593"/>
      <point x="267" y="473"/>
      <point x="143" y="324"/>
      <point x="89" y="250" type="qcurve"/>
      <point x="-63" y="-36" type="line"/>
      <point x="-154" y="0" type="line"/>
      <point x="-27" y="277"/>
      <point x="208" y="818"/>
      <point x="332" y="1082" type="qcurve" smooth="yes"/>
      <point x="351" y="1123"/>
      <point x="402" y="1219"/>
      <point x="461" y="1315"/>
      <point x="529" y="1403"/>
      <point x="601" y="1471"/>
      <point x="678" y="1512"/>
      <point x="717" y="1512" type="qcurve" smooth="yes"/>
      <point x="761" y="1512"/>
      <point x="810" y="1463"/>
      <point x="810" y="1418" type="qcurve" smooth="yes"/>
      <point x="810" y="1371"/>
      <point x="760" y="1252"/>
      <point x="676" y="1120"/>
      <point x="565" y="980"/>
      <point x="442" y="842"/>
      <point x="316" y="713"/>
      <point x="258" y="658" type="qcurve"/>
    </contour>
    <contour>
      <point x="722" y="1459" type="qcurve" smooth="yes"/>
      <point x="677" y="1459"/>
      <point x="602" y="1390"/>
      <point x="514" y="1232"/>
      <point x="400" y="978"/>
      <point x="318" y="793" type="qcurve"/>
      <point x="428" y="900"/>
      <point x="593" y="1101"/>
      <point x="703" y="1267"/>
      <point x="758" y="1390"/>
      <point x="758" y="1420" type="qcurve" smooth="yes"/>
      <point x="758" y="1438"/>
      <point x="738" y="1459"/>
    </contour>
  </outline>
</glyph>
<glyph name="l" format="2">
  <advance width="562"/>
  <unicode hex="006C"/>
  <outline>
    <contour>
      <point x="724" y="1455" type="qcurve" smooth="yes"/>
      <point x="759" y="1455"/>
      <point x="806" y="1421"/>
      <point x="806" y="1376" type="qcurve" smooth="yes"/>
      <point x="806" y="1345"/>
      <point x="781" y="1259"/>
      <point x="738" y="1158"/>
      <point x="680" y="1047"/>
      <point x="613" y="937"/>
      <point x="540" y="833"/>
      <point x="504" y="789" type="qcurve" smooth="yes"/>
      <point x="432" y="700"/>
      <point x="327" y="578"/>
      <point x="251" y="493"/>
      <point x="199" y="440"/>
      <point x="159" y="402"/>
      <point x="125" y="371"/>
      <point x="107" y="352" type="qcurve"/>
      <point x="99" y="314"/>
      <point x="100" y="245"/>
      <point x="100" y="216" type="qcurve" smooth="yes"/>
      <point x="100" y="129"/>
      <point x="156" y="45"/>
      <point x="207" y="45" type="qcurve" smooth="yes"/>
      <point x="241" y="45"/>
      <point x="310" y="80"/>
      <point x="378" y="136"/>
      <point x="442" y="207"/>
      <point x="499" y="280"/>
      <point x="545" y="348"/>
      <point x="562" y="373" type="qcurve"/>
      <point x="599" y="345" type="line"/>
      <point x="596" y="341"/>
      <point x="563" y="286"/>
      <point x="509" y="208"/>
      <point x="435" y="119"/>
      <point x="349" y="43"/>
      <point x="254" y="-7"/>
      <point x="205" y="-7" type="qcurve" smooth="yes"/>
      <point x="164" y="-7"/>
      <point x="89" y="24"/>
      <point x="32" y="91"/>
      <point x="-3" y="195"/>
      <point x="-3" y="268" type="qcurve" smooth="yes"/>
      <point x="-3" y="359"/>
      <point x="40" y="558"/>
      <point x="114" y="759"/>
      <point x="214" y="955"/>
      <point x="327" y="1132"/>
      <point x="450" y="1283"/>
      <point x="569" y="1393"/>
      <point x="679" y="1455"/>
    </contour>
    <contour>
      <point x="125" y="441" type="qcurve"/>
      <point x="210" y="529"/>
      <point x="369" y="710"/>
      <point x="508" y="887"/>
      <point x="624" y="1054"/>
      <point x="706" y="1202"/>
      <point x="752" y="1324"/>
      <point x="752" y="1368" type="qcurve" smooth="yes"/>
      <point x="752" y="1376"/>
      <point x="736" y="1403"/>
      <point x="725" y="1403" type="qcurve" smooth="yes"/>
      <point x="694" y="1403"/>
      <point x="592" y="1321"/>
      <point x="473" y="1180"/>
      <point x="346" y="992"/>
      <point x="234" y="778"/>
      <point x="146" y="550"/>
    </contour>
  </outline>
</glyph>
<glyph name="o" format="2">
  <advance width="747"/>
  <unicode hex="006F"/>
  <outline>
    <contour>
      <point x="564" y="272" type="qcurve"/>
      <point x="568" y="271"/>
      <point x="576" y="271"/>
      <point x="581" y="271" type="qcurve" smooth="yes"/>
      <point x="609" y="271"/>
      <point x="655" y="282"/>
      <point x="694" y="306"/>
      <point x="730" y="345"/>
      <point x="747" y="373" type="qcurve"/>
      <point x="783" y="345" type="line"/>
      <point x="735" y="277"/>
      <point x="633" y="223"/>
      <point x="576" y="223" type="qcurve" smooth="yes"/>
      <point x="555" y="223"/>
      <point x="539" y="227" type="qcurve"/>
      <point x="496" y="155"/>
      <point x="398" y="54"/>
      <point x="296" y="-10"/>
      <point x="196" y="-39"/>
      <point x="153" y="-39" type="qcurve" smooth="yes"/>
      <point x="109" y="-39"/>
      <point x="34" y="-8"/>
      <point x="-20" y="50"/>
      <point x="-50" y="130"/>
      <point x="-50" y="180" type="qcurve" smooth="yes"/>
      <point x="-50" y="230"/>
      <point x="-18" y="334"/>
      <point x="37" y="436"/>
      <point x="111" y="531"/>
      <point x="197" y="613"/>
      <point x="289" y="679"/>
      <point x="335" y="700" type="qcurve"/>
      <point x="367" y="658" type="line"/>
      <point x="314" y="620"/>
      <point x="205" y="504"/>
      <point x="116" y="366"/>
      <point x="59" y="217"/>
      <point x="59" y="147" type="qcurve" smooth="yes"/>
      <point x="59" y="84"/>
      <point x="115" y="15"/>
      <point x="172" y="15" type="qcurve" smooth="yes"/>
      <point x="216" y="15"/>
      <point x="302" y="51"/>
      <point x="384" y="113"/>
      <point x="460" y="198"/>
      <point x="494" y="246" type="qcurve"/>
      <point x="465" y="263"/>
      <point x="421" y="320"/>
      <point x="391" y="393"/>
      <point x="376" y="477"/>
      <point x="376" y="521" type="qcurve" smooth="yes"/>
      <point x="376" y="565"/>
      <point x="398" y="643"/>
      <point x="437" y="702"/>
      <point x="489" y="736"/>
      <point x="520" y="736" type="qcurve" smooth="yes"/>
      <point x="548" y="736"/>
      <point x="592" y="707"/>
      <point x="622" y="656"/>
      <point x="638" y="586"/>
      <point x="638" y="546" type="qcurve" smooth="yes"/>
      <point x="638" y="516"/>
      <point x="628" y="444"/>
      <point x="609" y="371"/>
      <point x="582" y="300"/>
    </contour>
    <contour>
      <point x="428" y="521" type="qcurve" smooth="yes"/>
      <point x="428" y="492"/>
      <point x="438" y="424"/>
      <point x="460" y="360"/>
      <point x="494" y="305"/>
      <point x="519" y="289" type="qcurve"/>
      <point x="537" y="324"/>
      <point x="562" y="397"/>
      <point x="579" y="465"/>
      <point x="586" y="524"/>
      <point x="586" y="546" type="qcurve" smooth="yes"/>
      <point x="586" y="576"/>
      <point x="576" y="626"/>
      <point x="559" y="663"/>
      <point x="534" y="684"/>
      <point x="519" y="684" type="qcurve" smooth="yes"/>
      <point x="499" y="684"/>
      <point x="465" y="657"/>
      <point x="441" y="612"/>
      <point x="428" y="553"/>
    </contour>
  </outline>
</glyph>
<glyph name="p" format="2">
  <advance width="813"/>
  <unicode hex="0070"/>
  <outline>
    <contour>
      <point x="349" y="872" type="line"/>
      <point x="122" y="416" type="line"/>
      <point x="182" y="493"/>
      <point x="314" y="626"/>
      <point x="383" y="668" type="qcurve" smooth="yes"/>
      <point x="434" y="698"/>
      <point x="512" y="721"/>
      <point x="547" y="721" type="qcurve" smooth="yes"/>
      <point x="581" y="721"/>
      <point x="625" y="699"/>
      <point x="651" y="663"/>
      <point x="661" y="620"/>
      <point x="661" y="599" type="qcurve" smooth="yes"/>
      <point x="661" y="552"/>
      <point x="629" y="460"/>
      <point x="582" y="370"/>
      <point x="526" y="283"/>
      <point x="479" y="200"/>
      <point x="447" y="120"/>
      <point x="447" y="83" type="qcurve" smooth="yes"/>
      <point x="447" y="65"/>
      <point x="456" y="42"/>
      <point x="471" y="29"/>
      <point x="489" y="25"/>
      <point x="498" y="25" type="qcurve" smooth="yes"/>
      <point x="517" y="25"/>
      <point x="568" y="60"/>
      <point x="626" y="117"/>
      <point x="687" y="190"/>
      <point x="744" y="267"/>
      <point x="794" y="342"/>
      <point x="813" y="373" type="qcurve"/>
      <point x="850" y="345" type="line"/>
      <point x="839" y="323"/>
      <point x="796" y="251"/>
      <point x="738" y="168"/>
      <point x="669" y="85"/>
      <point x="593" y="17"/>
      <point x="514" y="-26"/>
      <point x="476" y="-26" type="qcurve" smooth="yes"/>
      <point x="450" y="-26"/>
      <point x="402" y="-10"/>
      <point x="366" y="23"/>
      <point x="344" y="75"/>
      <point x="344" y="111" type="qcurve" smooth="yes"/>
      <point x="344" y="154"/>
      <point x="379" y="266"/>
      <point x="429" y="338" type="qcurve" smooth="yes"/>
      <point x="470" y="397"/>
      <point x="530" y="476"/>
      <point x="569" y="535"/>
      <point x="587" y="584"/>
      <point x="587" y="614" type="qcurve" smooth="yes"/>
      <point x="587" y="640"/>
      <point x="557" y="668"/>
      <point x="538" y="668" type="qcurve" smooth="yes"/>
      <point x="487" y="668"/>
      <point x="379" y="610"/>
      <point x="273" y="515"/>
      <point x="171" y="393"/>
      <point x="80" y="266"/>
      <point x="3" y="144"/>
      <point x="-53" y="47"/>
      <point x="-84" y="-12"/>
      <point x="-85" y="-13" type="qcurve" smooth="yes"/>
      <point x="-127" y="-99"/>
      <point x="-207" y="-260"/>
      <point x="-278" y="-404"/>
      <point x="-338" y="-523"/>
      <point x="-382" y="-611"/>
      <point x="-407" y="-661"/>
      <point x="-408" y="-662" type="qcurve" smooth="yes"/>
      <point x="-517" y="-600" type="line"/>
      <point x="-435" y="-445"/>
      <point x="-303" y="-195"/>
      <point x="-183" y="26"/>
      <point x="-67" y="234"/>
      <point x="63" y="461"/>
      <point x="216" y="722"/>
      <point x="314" y="886" type="qcurve"/>
    </contour>
  </outline>
</glyph>
<glyph name="u" format="2">
  <advance width="888"/>
  <unicode hex="0075"/>
  <outline>
    <contour>
      <point x="466" y="218" type="qcurve"/>
      <point x="420" y="164"/>
      <point x="330" y="73"/>
      <point x="241" y="8"/>
      <point x="153" y="-29"/>
      <point x="108" y="-29" type="qcurve" smooth="yes"/>
      <point x="70" y="-29"/>
      <point x="9" y="-2"/>
      <point x="-36" y="47"/>
      <point x="-60" y="118"/>
      <point x="-60" y="162" type="qcurve" smooth="yes"/>
      <point x="-60" y="231"/>
      <point x="1" y="377"/>
      <point x="94" y="515"/>
      <point x="207" y="639"/>
      <point x="258" y="687" type="qcurve"/>
      <point x="301" y="657" type="line"/>
      <point x="265" y="604"/>
      <point x="176" y="470"/>
      <point x="97" y="327"/>
      <point x="43" y="184"/>
      <point x="43" y="123" type="qcurve" smooth="yes"/>
      <point x="43" y="82"/>
      <point x="74" y="24"/>
      <point x="118" y="24" type="qcurve" smooth="yes"/>
      <point x="166" y="24"/>
      <point x="281" y="100"/>
      <point x="402" y="222"/>
      <point x="523" y="375"/>
      <point x="631" y="531"/>
      <point x="720" y="673"/>
      <point x="748" y="723" type="qcurve"/>
      <point x="821" y="687" type="line"/>
      <point x="763" y="573"/>
      <point x="656" y="376"/>
      <point x="573" y="219"/>
      <point x="524" y="103"/>
      <point x="524" y="69" type="qcurve" smooth="yes"/>
      <point x="524" y="55"/>
      <point x="536" y="37"/>
      <point x="549" y="37" type="qcurve" smooth="yes"/>
      <point x="586" y="36"/>
      <point x="675" y="102"/>
      <point x="766" y="202"/>
      <point x="853" y="321"/>
      <point x="888" y="373" type="qcurve"/>
      <point x="924" y="345" type="line"/>
      <point x="918" y="335"/>
      <point x="880" y="273"/>
      <point x="824" y="193"/>
      <point x="752" y="105"/>
      <point x="672" y="32"/>
      <point x="586" y="-15"/>
      <point x="544" y="-15" type="qcurve" smooth="yes"/>
      <point x="518" y="-15"/>
      <point x="477" y="3"/>
      <point x="449" y="33"/>
      <point x="433" y="73"/>
      <point x="433" y="95" type="qcurve" smooth="yes"/>
      <point x="433" y="121"/>
      <point x="450" y="183"/>
    </contour>
  </outline>
</glyph>
<glyph name="x" format="2">
  <advance width="968"/>
  <unicode hex="0078"/>
  <outline>
    <contour>
      <point x="425" y="319" type="line" smooth="yes"/>
      <point x="423" y="391"/>
      <point x="425" y="516"/>
      <point x="416" y="609"/>
      <point x="388" y="663"/>
      <point x="357" y="663" type="qcurve" smooth="yes"/>
      <point x="330" y="663"/>
      <point x="270" y="630"/>
      <point x="210" y="577"/>
      <point x="150" y="509"/>
      <point x="97" y="438"/>
      <point x="52" y="371"/>
      <point x="36" y="345" type="qcurve"/>
      <point x="0" y="373" type="line"/>
      <point x="15" y="396"/>
      <point x="59" y="464"/>
      <point x="114" y="540"/>
      <point x="178" y="616"/>
      <point x="248" y="677"/>
      <point x="322" y="715"/>
      <point x="360" y="715" type="qcurve" smooth="yes"/>
      <point x="396" y="715"/>
      <point x="455" y="695"/>
      <point x="499" y="638"/>
      <point x="528" y="535"/>
      <point x="533" y="453" type="qcurve"/>
      <point x="589" y="523"/>
      <point x="676" y="625"/>
      <point x="749" y="691"/>
      <point x="811" y="723"/>
      <point x="841" y="723" type="qcurve" smooth="yes"/>
      <point x="872" y="723"/>
      <point x="908" y="703"/>
      <point x="928" y="676"/>
      <point x="934" y="648"/>
      <point x="934" y="639" type="qcurve" smooth="yes"/>
      <point x="934" y="613"/>
      <point x="906" y="573"/>
      <point x="880" y="573" type="qcurve" smooth="yes"/>
      <point x="855" y="573"/>
      <point x="825" y="608"/>
      <point x="825" y="631" type="qcurve" smooth="yes"/>
      <point x="825" y="636"/>
      <point x="828" y="660"/>
      <point x="833" y="672" type="qcurve"/>
      <point x="811" y="672"/>
      <point x="754" y="630"/>
      <point x="681" y="552"/>
      <point x="591" y="441"/>
      <point x="536" y="372" type="qcurve"/>
      <point x="538" y="275"/>
      <point x="543" y="133"/>
      <point x="556" y="40"/>
      <point x="583" y="-6"/>
      <point x="607" y="-6" type="qcurve" smooth="yes"/>
      <point x="637" y="-6"/>
      <point x="704" y="34"/>
      <point x="772" y="99"/>
      <point x="839" y="181"/>
      <point x="899" y="265"/>
      <point x="950" y="344"/>
      <point x="968" y="373" type="qcurve"/>
      <point x="1004" y="345" type="line"/>
      <point x="997" y="333"/>
      <point x="955" y="263"/>
      <point x="893" y="172"/>
      <point x="813" y="72"/>
      <point x="725" y="-11"/>
      <point x="631" y="-65"/>
      <point x="586" y="-65" type="qcurve" smooth="yes"/>
      <point x="546" y="-65"/>
      <point x="490" y="-38"/>
      <point x="452" y="30"/>
      <point x="432" y="146"/>
      <point x="428" y="235" type="qcurve"/>
      <point x="372" y="166"/>
      <point x="276" y="55"/>
      <point x="188" y="-22"/>
      <point x="107" y="-63"/>
      <point x="68" y="-63" type="qcurve" smooth="yes"/>
      <point x="14" y="-63"/>
      <point x="-46" y="-4"/>
      <point x="-46" y="41" type="qcurve" smooth="yes"/>
      <point x="-46" y="62"/>
      <point x="-19" y="101"/>
      <point x="6" y="101" type="qcurve" smooth="yes"/>
      <point x="28" y="101"/>
      <point x="63" y="63"/>
      <point x="63" y="37" type="qcurve" smooth="yes"/>
      <point x="63" y="26"/>
      <point x="57" y="-2"/>
      <point x="50" y="-13" type="qcurve" smooth="yes"/>
      <point x="53" y="-15"/>
      <point x="63" y="-16"/>
      <point x="68" y="-16" type="qcurve" smooth="yes"/>
      <point x="102" y="-16"/>
      <point x="183" y="36"/>
      <point x="273" y="126"/>
      <point x="372" y="246"/>
      <point x="425" y="315" type="qcurve"/>
    </contour>
  </outline>
</glyph>
<glyph name="z" format="2">
  <advance width="760"/>
  <unicode hex="007A"/>
  <outline>
    <contour>
      <point x="278" y="22" type="qcurve"/>
      <point x="284" y="11"/>
      <point x="308" y="-36"/>
      <point x="314" y="-68" type="qcurve"/>
      <point x="376" y="-29"/>
      <point x="495" y="60"/>
      <point x="607" y="167"/>
      <point x="712" y="295"/>
      <point x="760" y="373" type="qcurve"/>
      <point x="796" y="345" type="line"/>
      <point x="745" y="261"/>
      <point x="635" y="126"/>
      <point x="516" y="14"/>
      <point x="387" y="-81"/>
      <point x="317" y="-124" type="qcurve"/>
      <point x="313" y="-217"/>
      <point x="239" y="-406"/>
      <point x="124" y="-582"/>
      <point x="-21" y="-735"/>
      <point x="-170" y="-849"/>
      <point x="-311" y="-915"/>
      <point x="-365" y="-915" type="qcurve" smooth="yes"/>
      <point x="-404" y="-915"/>
      <point x="-457" y="-888"/>
      <point x="-489" y="-846"/>
      <point x="-503" y="-796"/>
      <point x="-503" y="-773" type="qcurve" smooth="yes"/>
      <point x="-503" y="-715"/>
      <point x="-431" y="-582"/>
      <point x="-290" y="-439"/>
      <point x="-82" y="-291"/>
      <point x="53" y="-218" type="qcurve" smooth="yes"/>
      <point x="100" y="-192"/>
      <point x="192" y="-142"/>
      <point x="238" y="-115" type="qcurve"/>
      <point x="238" y="-110"/>
      <point x="239" y="-99"/>
      <point x="239" y="-94" type="qcurve" smooth="yes"/>
      <point x="239" y="-64"/>
      <point x="230" y="-21"/>
      <point x="222" y="-6" type="qcurve"/>
      <point x="167" y="-28"/>
      <point x="129" y="-28" type="qcurve" smooth="yes"/>
      <point x="92" y="-28"/>
      <point x="42" y="7"/>
      <point x="42" y="37" type="qcurve" smooth="yes"/>
      <point x="42" y="69"/>
      <point x="98" y="104"/>
      <point x="137" y="104" type="qcurve" smooth="yes"/>
      <point x="189" y="104"/>
      <point x="234" y="70" type="qcurve"/>
      <point x="280" y="106"/>
      <point x="366" y="219"/>
      <point x="432" y="350"/>
      <point x="472" y="487"/>
      <point x="472" y="547" type="qcurve" smooth="yes"/>
      <point x="472" y="580"/>
      <point x="455" y="626"/>
      <point x="427" y="655"/>
      <point x="391" y="669"/>
      <point x="371" y="669" type="qcurve" smooth="yes"/>
      <point x="330" y="669"/>
      <point x="255" y="629"/>
      <point x="189" y="566"/>
      <point x="132" y="490"/>
      <point x="85" y="418"/>
      <point x="49" y="359"/>
      <point x="37" y="345" type="qcurve"/>
      <point x="0" y="373" type="line"/>
      <point x="12" y="389"/>
      <point x="49" y="452"/>
      <point x="99" y="530"/>
      <point x="161" y="612"/>
      <point x="235" y="679"/>
      <point x="322" y="722"/>
      <point x="371" y="722" type="qcurve" smooth="yes"/>
      <point x="418" y="722"/>
      <point x="493" y="691"/>
      <point x="546" y="636"/>
      <point x="575" y="558"/>
      <point x="575" y="510" type="qcurve" smooth="yes"/>
      <point x="575" y="440"/>
      <point x="527" y="298"/>
      <point x="446" y="169"/>
      <point x="338" y="60"/>
    </contour>
    <contour>
      <point x="24" y="-524" type="qcurve" smooth="yes"/>
      <point x="55" y="-485"/>
      <point x="117" y="-399"/>
      <point x="171" y="-310"/>
      <point x="214" y="-221"/>
      <point x="226" y="-179" type="qcurve"/>
      <point x="79" y="-262" type="line" smooth="yes"/>
      <point x="-49" y="-333"/>
      <point x="-228" y="-458"/>
      <point x="-345" y="-565"/>
      <point x="-411" y="-651"/>
      <point x="-444" y="-717"/>
      <point x="-451" y="-760"/>
      <point x="-451" y="-770" type="qcurve" smooth="yes"/>
      <point x="-451" y="-784"/>
      <point x="-445" y="-813"/>
      <point x="-428" y="-835"/>
      <point x="-400" y="-849"/>
      <point x="-377" y="-849" type="qcurve" smooth="yes"/>
      <point x="-352" y="-849"/>
      <point x="-279" y="-821"/>
      <point x="-181" y="-748"/>
      <point x="-55" y="-622"/>
    </contour>
    <contour>
      <point x="193" y="40" type="qcurve"/>
      <point x="179" y="49"/>
      <point x="147" y="58"/>
      <point x="136" y="58" type="qcurve" smooth="yes"/>
      <point x="93" y="58"/>
      <point x="93" y="39" type="qcurve" smooth="yes"/>
      <point x="93" y="20"/>
      <point x="130" y="20" type="qcurve" smooth="yes"/>
      <point x="140" y="20"/>
      <point x="178" y="29"/>
    </contour>
  </outline>
</glyph>
<glyph name="bar" format="2">
  <advance width="1024"/>
  <unicode hex="007C"/>
  <outline>
    <contour>
      <point x="32" y="-263" type="line"/>
      <point x="890" y="1496" type="line"/>
      <point x="992" y="1496" type="line"/>
      <point x="134" y="-263" type="line"/>
    </contour>
  </outline>
</glyph>
<glyph name="cent" format="2">
  <advance width="786"/>
  <unicode hex="00A2"/>
  <outline>
    <contour>
      <point x="109" y="-81" type="line"/>
      <point x="244" y="199" type="line"/>
      <point x="182" y="224"/>
      <point x="104" y="338"/>
      <point x="104" y="432" type="qcurve" smooth="yes"/>
      <point x="104" y="510"/>
      <point x="149" y="649"/>
      <point x="224" y="767"/>
      <point x="322" y="862"/>
      <point x="429" y="928"/>
      <point x="538" y="963"/>
      <point x="586" y="963" type="qcurve" smooth="yes"/>
      <point x="593" y="963"/>
      <point x="605" y="962"/>
      <point x="611" y="961" type="qcurve"/>
      <point x="728" y="1203" type="line"/>
      <point x="770" y="1185" type="line"/>
      <point x="658" y="952" type="line"/>
      <point x="684" y="943"/>
      <point x="718" y="916"/>
      <point x="738" y="884"/>
      <point x="746" y="853"/>
      <point x="746" y="841" type="qcurve" smooth="yes"/>
      <point x="746" y="817"/>
      <point x="732" y="763"/>
      <point x="707" y="718"/>
      <point x="670" y="688"/>
      <point x="648" y="688" type="qcurve" smooth="yes"/>
      <point x="626" y="688"/>
      <point x="594" y="717"/>
      <point x="594" y="739" type="qcurve" smooth="yes"/>
      <point x="594" y="740"/>
      <point x="597" y="762"/>
      <point x="613" y="787"/>
      <point x="646" y="807"/>
      <point x="676" y="807" type="qcurve" smooth="yes"/>
      <point x="688" y="807" type="line"/>
      <point x="694" y="823"/>
      <point x="694" y="841" type="qcurve" smooth="yes"/>
      <point x="694" y="865"/>
      <point x="665" y="898"/>
      <point x="635" y="905" type="qcurve"/>
      <point x="314" y="236" type="line"/>
      <point x="325" y="233"/>
      <point x="350" y="231"/>
      <point x="364" y="231" type="qcurve" smooth="yes"/>
      <point x="410" y="231"/>
      <point x="498" y="259"/>
      <point x="581" y="309"/>
      <point x="658" y="374"/>
      <point x="693" y="412" type="qcurve"/>
      <point x="730" y="375" type="line"/>
      <point x="640" y="277"/>
      <point x="448" y="179"/>
      <point x="355" y="179" type="qcurve" smooth="yes"/>
      <point x="320" y="179"/>
      <point x="289" y="185" type="qcurve"/>
      <point x="152" y="-100" type="line"/>
    </contour>
    <contour>
      <point x="211" y="414" type="qcurve" smooth="yes"/>
      <point x="211" y="353"/>
      <point x="242" y="276"/>
      <point x="271" y="256" type="qcurve"/>
      <point x="586" y="910" type="line"/>
      <point x="541" y="909"/>
      <point x="450" y="870"/>
      <point x="367" y="801"/>
      <point x="295" y="708"/>
      <point x="242" y="598"/>
      <point x="211" y="476"/>
    </contour>
  </outline>
</glyph>
<glyph name="sterling" format="2">
  <advance width="1493"/>
  <unicode hex="00A3"/>
  <outline>
    <contour>
      <point x="817" y="583" type="line"/>
      <point x="748" y="465"/>
      <point x="593" y="249"/>
      <point x="501" y="165" type="qcurve"/>
      <point x="565" y="145"/>
      <point x="685" y="101"/>
      <point x="794" y="64"/>
      <point x="892" y="40"/>
      <point x="934" y="40" type="qcurve" smooth="yes"/>
      <point x="998" y="40"/>
      <point x="1117" y="84"/>
      <point x="1176" y="140" type="qcurve"/>
      <point x="1217" y="108" type="line"/>
      <point x="1216" y="107"/>
      <point x="1196" y="84"/>
      <point x="1156" y="51"/>
      <point x="1096" y="14"/>
      <point x="1015" y="-18"/>
      <point x="912" y="-39"/>
      <point x="849" y="-39" type="qcurve" smooth="yes"/>
      <point x="786" y="-39"/>
      <point x="668" y="-17"/>
      <point x="554" y="18"/>
      <point x="445" y="60"/>
      <point x="391" y="81" type="qcurve"/>
      <point x="319" y="35"/>
      <point x="158" y="-17"/>
      <point x="67" y="-17" type="qcurve" smooth="yes"/>
      <point x="-14" y="-17"/>
      <point x="-100" y="41"/>
      <point x="-100" y="89" type="qcurve" smooth="yes"/>
      <point x="-100" y="152"/>
      <point x="40" y="220"/>
      <point x="182" y="220" type="qcurve" smooth="yes"/>
      <point x="243" y="220"/>
      <point x="359" y="203"/>
      <point x="415" y="189" type="qcurve"/>
      <point x="496" y="265"/>
      <point x="630" y="468"/>
      <point x="691" y="583" type="qcurve"/>
      <point x="391" y="583" type="line"/>
      <point x="418" y="638" type="line"/>
      <point x="720" y="638" type="line"/>
      <point x="770" y="733"/>
      <point x="865" y="927"/>
      <point x="963" y="1106"/>
      <point x="1066" y="1262"/>
      <point x="1182" y="1378"/>
      <point x="1313" y="1444"/>
      <point x="1389" y="1444" type="qcurve" smooth="yes"/>
      <point x="1425" y="1444"/>
      <point x="1487" y="1421"/>
      <point x="1533" y="1374"/>
      <point x="1559" y="1302"/>
      <point x="1559" y="1254" type="qcurve" smooth="yes"/>
      <point x="1559" y="1205"/>
      <point x="1534" y="1100"/>
      <point x="1511" y="1045" type="qcurve"/>
      <point x="1461" y="1065" type="line"/>
      <point x="1483" y="1115"/>
      <point x="1506" y="1210"/>
      <point x="1506" y="1255" type="qcurve" smooth="yes"/>
      <point x="1506" y="1292"/>
      <point x="1488" y="1343"/>
      <point x="1457" y="1375"/>
      <point x="1416" y="1389"/>
      <point x="1393" y="1389" type="qcurve" smooth="yes"/>
      <point x="1346" y="1389"/>
      <point x="1257" y="1329"/>
      <point x="1170" y="1223"/>
      <point x="1084" y="1079"/>
      <point x="995" y="912"/>
      <point x="900" y="730"/>
      <point x="849" y="638" type="qcurve"/>
      <point x="1154" y="638" type="line"/>
      <point x="1127" y="583" type="line"/>
    </contour>
    <contour>
      <point x="61" y="35" type="qcurve" smooth="yes"/>
      <point x="133" y="35"/>
      <point x="257" y="74"/>
      <point x="314" y="109" type="qcurve"/>
      <point x="256" y="129"/>
      <point x="142" y="155"/>
      <point x="83" y="155" type="qcurve" smooth="yes"/>
      <point x="15" y="155"/>
      <point x="-48" y="115"/>
      <point x="-48" y="89" type="qcurve" smooth="yes"/>
      <point x="-48" y="81"/>
      <point x="-39" y="62"/>
      <point x="-15" y="46"/>
      <point x="27" y="35"/>
    </contour>
  </outline>
</glyph>
<glyph name="currency" format="2">
  <advance width="800"/>
  <unicode hex="00A4"/>
  <outline>
    <contour>
      <point x="640" y="791" type="line"/>
      <point x="668" y="751"/>
      <point x="693" y="674"/>
      <point x="693" y="635" type="qcurve" smooth="yes"/>
      <point x="693" y="594"/>
      <point x="669" y="519"/>
      <point x="640" y="479" type="qcurve"/>
      <point x="747" y="372" type="line"/>
      <point x="701" y="325" type="line"/>
      <point x="593" y="433" type="line"/>
      <point x="556" y="409"/>
      <point x="472" y="382"/>
      <point x="437" y="382" type="qcurve" smooth="yes"/>
      <point x="398" y="382"/>
      <point x="321" y="406"/>
      <point x="283" y="434" type="qcurve"/>
      <point x="175" y="326" type="line"/>
      <point x="171" y="331"/>
      <point x="164" y="338" type="qcurve" smooth="yes"/>
      <point x="158" y="344"/>
      <point x="140" y="361"/>
      <point x="129" y="372" type="qcurve"/>
      <point x="238" y="481" type="line"/>
      <point x="210" y="519"/>
      <point x="185" y="596"/>
      <point x="185" y="635" type="qcurve" smooth="yes"/>
      <point x="185" y="675"/>
      <point x="209" y="751"/>
      <point x="238" y="791" type="qcurve"/>
      <point x="129" y="899" type="line"/>
      <point x="174" y="944" type="line"/>
      <point x="283" y="836" type="line"/>
      <point x="321" y="862"/>
      <point x="404" y="888"/>
      <point x="441" y="888" type="qcurve" smooth="yes"/>
      <point x="480" y="888"/>
      <point x="556" y="866"/>
      <point x="594" y="838" type="qcurve"/>
      <point x="699" y="945" type="line"/>
      <point x="747" y="899" type="line"/>
    </contour>
    <contour>
      <point x="302" y="497" type="qcurve" smooth="yes"/>
      <point x="330" y="469"/>
      <point x="400" y="445"/>
      <point x="437" y="445" type="qcurve" smooth="yes"/>
      <point x="473" y="445"/>
      <point x="542" y="470"/>
      <point x="597" y="518"/>
      <point x="630" y="588"/>
      <point x="630" y="634" type="qcurve" smooth="yes"/>
      <point x="630" y="673"/>
      <point x="599" y="742"/>
      <point x="547" y="794"/>
      <point x="476" y="825"/>
      <point x="437" y="825" type="qcurve" smooth="yes"/>
      <point x="396" y="825"/>
      <point x="327" y="793"/>
      <point x="277" y="740"/>
      <point x="248" y="671"/>
      <point x="248" y="634" type="qcurve" smooth="yes"/>
      <point x="248" y="596"/>
      <point x="273" y="526"/>
    </contour>
  </outline>
</glyph>
<glyph name="brokenbar" format="2">
  <advance width="1024"/>
  <unicode hex="00A6"/>
  <outline>
    <contour>
      <point x="32" y="-263" type="line"/>
      <point x="388" y="466" type="line"/>
      <point x="490" y="466" type="line"/>
      <point x="134" y="-263" type="line"/>
    </contour>
    <contour>
      <point x="534" y="767" type="line"/>
      <point x="890" y="1496" type="line"/>
      <point x="992" y="1496" type="line"/>
      <point x="636" y="767" type="line"/>
    </contour>
  </outline>
</glyph>
<glyph name="copyright" format="2">
  <advance width="1638"/>
  <unicode hex="00A9"/>
  <outline>
    <contour>
      <point x="739" y="762" type="line"/>
      <point x="750" y="754"/>
      <point x="771" y="739"/>
      <point x="798" y="728"/>
      <point x="833" y="721"/>
      <point x="857" y="721" type="qcurve" smooth="yes"/>
      <point x="900" y="721"/>
      <point x="977" y="754"/>
      <point x="1043" y="808"/>
      <point x="1095" y="877"/>
      <point x="1131" y="950"/>
      <point x="1151" y="1021"/>
      <point x="1151" y="1049" type="qcurve" smooth="yes"/>
      <point x="1151" y="1082"/>
      <point x="1132" y="1131"/>
      <point x="1099" y="1164"/>
      <point x="1055" y="1180"/>
      <point x="1030" y="1180" type="qcurve" smooth="yes"/>
      <point x="959" y="1180"/>
      <point x="826" y="1115"/>
      <point x="707" y="1008"/>
      <point x="608" y="870"/>
      <point x="536" y="725"/>
      <point x="496" y="585"/>
      <point x="496" y="529" type="qcurve" smooth="yes"/>
      <point x="496" y="481"/>
      <point x="517" y="396"/>
      <point x="565" y="333"/>
      <point x="642" y="296"/>
      <point x="698" y="296" type="qcurve" smooth="yes"/>
      <point x="748" y="296"/>
      <point x="856" y="328"/>
      <point x="966" y="398"/>
      <point x="1073" y="510"/>
      <point x="1122" y="590" type="qcurve"/>
      <point x="1152" y="566" type="line"/>
      <point x="1098" y="478"/>
      <point x="981" y="358"/>
      <point x="864" y="285"/>
      <point x="752" y="254"/>
      <point x="701" y="254" type="qcurve" smooth="yes"/>
      <point x="621" y="254"/>
      <point x="508" y="306"/>
      <point x="436" y="391"/>
      <point x="402" y="499"/>
      <point x="402" y="555" type="qcurve" smooth="yes"/>
      <point x="402" y="618"/>
      <point x="447" y="766"/>
      <point x="527" y="914"/>
      <point x="640" y="1051"/>
      <point x="775" y="1157"/>
      <point x="930" y="1221"/>
      <point x="1012" y="1221" type="qcurve" smooth="yes"/>
      <point x="1050" y="1221"/>
      <point x="1120" y="1200"/>
      <point x="1173" y="1153"/>
      <point x="1204" y="1080"/>
      <point x="1204" y="1029" type="qcurve" smooth="yes"/>
      <point x="1204" y="996"/>
      <point x="1183" y="917"/>
      <point x="1144" y="838"/>
      <point x="1088" y="765"/>
      <point x="1016" y="708"/>
      <point x="930" y="674"/>
      <point x="881" y="674" type="qcurve" smooth="yes"/>
      <point x="830" y="674"/>
      <point x="748" y="708"/>
      <point x="717" y="737" type="qcurve"/>
    </contour>
    <contour>
      <point x="937" y="1395" type="qcurve" smooth="yes"/>
      <point x="836" y="1395"/>
      <point x="643" y="1335"/>
      <point x="472" y="1228"/>
      <point x="329" y="1082"/>
      <point x="226" y="910"/>
      <point x="168" y="718"/>
      <point x="168" y="619" type="qcurve" smooth="yes"/>
      <point x="168" y="497"/>
      <point x="247" y="287"/>
      <point x="396" y="132"/>
      <point x="609" y="44"/>
      <point x="744" y="44" type="qcurve" smooth="yes"/>
      <point x="843" y="44"/>
      <point x="1035" y="103"/>
      <point x="1207" y="208"/>
      <point x="1353" y="353"/>
      <point x="1459" y="524"/>
      <point x="1519" y="714"/>
      <point x="1519" y="812" type="qcurve" smooth="yes"/>
      <point x="1519" y="935"/>
      <point x="1439" y="1148"/>
      <point x="1288" y="1305"/>
      <point x="1072" y="1395"/>
    </contour>
    <contour>
      <point x="951" y="1456" type="qcurve" smooth="yes"/>
      <point x="1090" y="1456"/>
      <point x="1323" y="1359"/>
      <point x="1493" y="1190"/>
      <point x="1588" y="959"/>
      <point x="1588" y="826" type="qcurve" smooth="yes"/>
      <point x="1588" y="710"/>
      <point x="1522" y="495"/>
      <point x="1404" y="308"/>
      <point x="1243" y="154"/>
      <point x="1053" y="44"/>
      <point x="841" y="-16"/>
      <point x="732" y="-16" type="qcurve" smooth="yes"/>
      <point x="593" y="-16"/>
      <point x="361" y="80"/>
      <point x="193" y="249"/>
      <point x="100" y="479"/>
      <point x="100" y="612" type="qcurve" smooth="yes"/>
      <point x="100" y="728"/>
      <point x="165" y="943"/>
      <point x="280" y="1131"/>
      <point x="439" y="1285"/>
      <point x="628" y="1395"/>
      <point x="840" y="1456"/>
    </contour>
  </outline>
</glyph>
<glyph name="degree" format="2">
  <advance width="400"/>
  <unicode hex="00B0"/>
  <outline>
    <contour>
      <point x="562" y="1323" type="qcurve" smooth="yes"/>
      <point x="562" y="1298"/>
      <point x="543" y="1254"/>
      <point x="511" y="1221"/>
      <point x="466" y="1202"/>
      <point x="441" y="1202" type="qcurve" smooth="yes"/>
      <point x="415" y="1202"/>
      <point x="371" y="1220"/>
      <point x="339" y="1253"/>
      <point x="320" y="1297"/>
      <point x="320" y="1323" type="qcurve" smooth="yes"/>
      <point x="320" y="1348"/>
      <point x="339" y="1393"/>
      <point x="371" y="1425"/>
      <point x="415" y="1444"/>
      <point x="441" y="1444" type="qcurve" smooth="yes"/>
      <point x="466" y="1444"/>
      <point x="511" y="1426"/>
      <point x="543" y="1393"/>
      <point x="562" y="1349"/>
    </contour>
    <contour>
      <point x="514" y="1323" type="qcurve" smooth="yes"/>
      <point x="514" y="1354"/>
      <point x="472" y="1397"/>
      <point x="441" y="1397" type="qcurve" smooth="yes"/>
      <point x="410" y="1397"/>
      <point x="367" y="1354"/>
      <point x="367" y="1323" type="qcurve" smooth="yes"/>
      <point x="367" y="1292"/>
      <point x="410" y="1249"/>
      <point x="441" y="1249" type="qcurve" smooth="yes"/>
      <point x="472" y="1249"/>
      <point x="514" y="1294"/>
    </contour>
  </outline>
</glyph>
<glyph name="periodcentered" format="2">
  <advance width="350"/>
  <unicode hex="00B7"/>
  <outline>
    <contour>
      <point x="293" y="659" type="qcurve" smooth="yes"/>
      <point x="293" y="629"/>
      <point x="250" y="586"/>
      <point x="219" y="586" type="qcurve" smooth="yes"/>
      <point x="190" y="586"/>
      <point x="147" y="629"/>
      <point x="147" y="659" type="qcurve" smooth="yes"/>
      <point x="147" y="688"/>
      <point x="190" y="731"/>
      <point x="219" y="731" type="qcurve" smooth="yes"/>
      <point x="250" y="731"/>
      <point x="293" y="688"/>
    </contour>
  </outline>
</glyph>
<glyph name="onesuperior" format="2">
  <advance width="483"/>
  <unicode hex="00B9"/>
  <outline>
    <contour>
      <point x="710" y="1390" type="line"/>
      <point x="290" y="583" type="line"/>
      <point x="205" y="618" type="line"/>
      <point x="291" y="772"/>
      <point x="456" y="1083"/>
      <point x="553" y="1238" type="qcurve"/>
      <point x="498" y="1191"/>
      <point x="391" y="1116"/>
      <point x="303" y="1059"/>
      <point x="239" y="1022"/>
      <point x="228" y="1015" type="qcurve"/>
      <point x="204" y="1055" type="line"/>
      <point x="205" y="1055"/>
      <point x="251" y="1080"/>
      <point x="326" y="1126"/>
      <point x="422" y="1191"/>
      <point x="525" y="1270"/>
      <point x="626" y="1362"/>
      <point x="669" y="1412" type="qcurve"/>
    </contour>
  </outline>
</glyph>
<glyph name="onequarter" format="2">
  <advance width="1555"/>
  <unicode hex="00BC"/>
  <outline>
    <contour>
      <point x="1167" y="832" type="line" smooth="yes"/>
      <point x="1167" y="829"/>
      <point x="1140" y="778"/>
      <point x="1091" y="696"/>
      <point x="1023" y="590"/>
      <point x="942" y="474"/>
      <point x="850" y="354"/>
      <point x="801" y="299" type="qcurve"/>
      <point x="858" y="316"/>
      <point x="963" y="330"/>
      <point x="1013" y="330" type="qcurve" smooth="yes"/>
      <point x="1058" y="330"/>
      <point x="1141" y="320"/>
      <point x="1180" y="315" type="qcurve" smooth="yes"/>
      <point x="1194" y="313"/>
      <point x="1220" y="310"/>
      <point x="1233" y="308" type="qcurve"/>
      <point x="1417" y="732" type="line"/>
      <point x="1471" y="718" type="line"/>
      <point x="1318" y="303" type="line"/>
      <point x="1349" y="304"/>
      <point x="1402" y="316"/>
      <point x="1442" y="330"/>
      <point x="1468" y="342"/>
      <point x="1473" y="345" type="qcurve"/>
      <point x="1495" y="311" type="line" smooth="yes"/>
      <point x="1494" y="310"/>
      <point x="1465" y="294"/>
      <point x="1415" y="276"/>
      <point x="1345" y="262"/>
      <point x="1302" y="262" type="qcurve"/>
      <point x="1184" y="-58" type="line"/>
      <point x="1083" y="-38" type="line"/>
      <point x="1215" y="267" type="line"/>
      <point x="1202" y="269"/>
      <point x="1177" y="272"/>
      <point x="1164" y="274" type="qcurve" smooth="yes"/>
      <point x="1128" y="279"/>
      <point x="1054" y="288"/>
      <point x="1013" y="288" type="qcurve" smooth="yes"/>
      <point x="949" y="288"/>
      <point x="808" y="262"/>
      <point x="727" y="225" type="qcurve"/>
      <point x="704" y="256" type="line"/>
      <point x="742" y="305"/>
      <point x="798" y="389" type="qcurve" smooth="yes"/>
      <point x="846" y="461"/>
      <point x="990" y="695"/>
      <point x="1088" y="870" type="qcurve"/>
    </contour>
    <contour>
      <point x="120" y="-20" type="line"/>
      <point x="1234" y="1444" type="line"/>
      <point x="1318" y="1444" type="line"/>
      <point x="204" y="-20" type="line"/>
    </contour>
    <contour>
      <point x="710" y="1390" type="line"/>
      <point x="290" y="583" type="line"/>
      <point x="205" y="618" type="line"/>
      <point x="291" y="772"/>
      <point x="456" y="1083"/>
      <point x="553" y="1238" type="qcurve"/>
      <point x="498" y="1191"/>
      <point x="391" y="1116"/>
      <point x="303" y="1059"/>
      <point x="239" y="1022"/>
      <point x="228" y="1015" type="qcurve"/>
      <point x="204" y="1055" type="line"/>
      <point x="205" y="1055"/>
      <point x="251" y="1080"/>
      <point x="326" y="1126"/>
      <point x="422" y="1191"/>
      <point x="525" y="1270"/>
      <point x="626" y="1362"/>
      <point x="669" y="1412" type="qcurve"/>
    </contour>
  </outline>
</glyph>
<glyph name="onehalf" format="2">
  <advance width="1654"/>
  <unicode hex="00BD"/>
  <outline>
    <contour>
      <point x="120" y="-20" type="line"/>
      <point x="1234" y="1444" type="line"/>
      <point x="1318" y="1444" type="line"/>
      <point x="204" y="-20" type="line"/>
    </contour>
    <contour>
      <point x="710" y="1390" type="line"/>
      <point x="290" y="583" type="line"/>
      <point x="205" y="618" type="line"/>
      <point x="291" y="772"/>
      <point x="456" y="1083"/>
      <point x="553" y="1238" type="qcurve"/>
      <point x="498" y="1191"/>
      <point x="391" y="1116"/>
      <point x="303" y="1059"/>
      <point x="239" y="1022"/>
      <point x="228" y="1015" type="qcurve"/>
      <point x="204" y="1055" type="line"/>
      <point x="205" y="1055"/>
      <point x="251" y="1080"/>
      <point x="326" y="1126"/>
      <point x="422" y="1191"/>
      <point x="525" y="1270"/>
      <point x="626" y="1362"/>
      <point x="669" y="1412" type="qcurve"/>
    </contour>
    <contour>
      <point x="1231" y="363" type="line"/>
      <point x="1213" y="355"/>
      <point x="1168" y="342"/>
      <point x="1118" y="331"/>
      <point x="1068" y="325"/>
      <point x="1045" y="325" type="qcurve" smooth="yes"/>
      <point x="1000" y="325"/>
      <point x="921" y="342"/>
      <point x="861" y="379"/>
      <point x="826" y="438"/>
      <point x="826" y="480" type="qcurve" smooth="yes"/>
      <point x="826" y="527"/>
      <point x="868" y="615"/>
      <point x="940" y="693"/>
      <point x="1038" y="758"/>
      <point x="1148" y="804"/>
      <point x="1267" y="830"/>
      <point x="1324" y="830" type="qcurve" smooth="yes"/>
      <point x="1382" y="830"/>
      <point x="1484" y="807"/>
      <point x="1560" y="754"/>
      <point x="1604" y="670"/>
      <point x="1604" y="610" type="qcurve" smooth="yes"/>
      <point x="1604" y="560"/>
      <point x="1565" y="456"/>
      <point x="1496" y="354"/>
      <point x="1402" y="257"/>
      <point x="1294" y="169"/>
      <point x="1175" y="93"/>
      <point x="1115" y="63" type="qcurve"/>
      <point x="1161" y="44"/>
      <point x="1252" y="17"/>
      <point x="1297" y="17" type="qcurve" smooth="yes"/>
      <point x="1313" y="17"/>
      <point x="1349" y="21"/>
      <point x="1371" y="27" type="qcurve"/>
      <point x="1383" y="-15" type="line"/>
      <point x="1333" y="-27"/>
      <point x="1296" y="-27" type="qcurve" smooth="yes"/>
      <point x="1230" y="-27"/>
      <point x="1116" y="12"/>
      <point x="1062" y="35" type="qcurve"/>
      <point x="1001" y="9"/>
      <point x="889" y="-19"/>
      <point x="842" y="-19" type="qcurve" smooth="yes"/>
      <point x="818" y="-19"/>
      <point x="777" y="-11"/>
      <point x="746" y="7"/>
      <point x="728" y="35"/>
      <point x="728" y="55" type="qcurve" smooth="yes"/>
      <point x="728" y="67"/>
      <point x="741" y="96"/>
      <point x="771" y="121"/>
      <point x="821" y="138"/>
      <point x="858" y="138" type="qcurve" smooth="yes"/>
      <point x="910" y="138"/>
      <point x="1001" y="110"/>
      <point x="1049" y="90" type="qcurve"/>
      <point x="1105" y="118"/>
      <point x="1218" y="192"/>
      <point x="1322" y="278"/>
      <point x="1414" y="375"/>
      <point x="1482" y="476"/>
      <point x="1521" y="578"/>
      <point x="1521" y="627" type="qcurve" smooth="yes"/>
      <point x="1521" y="673"/>
      <point x="1490" y="734"/>
      <point x="1436" y="771"/>
      <point x="1361" y="786"/>
      <point x="1318" y="786" type="qcurve" smooth="yes"/>
      <point x="1268" y="786"/>
      <point x="1170" y="760"/>
      <point x="1080" y="716"/>
      <point x="1003" y="657"/>
      <point x="946" y="590"/>
      <point x="914" y="518"/>
      <point x="914" y="483" type="qcurve" smooth="yes"/>
      <point x="914" y="451"/>
      <point x="937" y="406"/>
      <point x="976" y="379"/>
      <point x="1026" y="367"/>
      <point x="1053" y="367" type="qcurve" smooth="yes"/>
      <point x="1115" y="367"/>
      <point x="1189" y="387"/>
      <point x="1218" y="396" type="qcurve"/>
    </contour>
    <contour>
      <point x="839" y="24" type="qcurve" smooth="yes"/>
      <point x="905" y="24"/>
      <point x="996" y="62" type="qcurve"/>
      <point x="959" y="76"/>
      <point x="895" y="95"/>
      <point x="860" y="95" type="qcurve" smooth="yes"/>
      <point x="812" y="95"/>
      <point x="776" y="68"/>
      <point x="776" y="55" type="qcurve" smooth="yes"/>
      <point x="776" y="41"/>
      <point x="805" y="24"/>
    </contour>
  </outline>
</glyph>
<glyph name="Oslash" format="2">
  <advance width="1573"/>
  <unicode hex="00D8"/>
  <outline>
    <contour>
      <point x="-125" y="-303" type="line"/>
      <point x="142" y="-34" type="line"/>
      <point x="94" y="32"/>
      <point x="40" y="201"/>
      <point x="40" y="307" type="qcurve" smooth="yes"/>
      <point x="40" y="452"/>
      <point x="115" y="732"/>
      <point x="252" y="983"/>
      <point x="444" y="1195"/>
      <point x="678" y="1349"/>
      <point x="948" y="1436"/>
      <point x="1094" y="1436" type="qcurve" smooth="yes"/>
      <point x="1163" y="1436"/>
      <point x="1268" y="1414"/>
      <point x="1345" y="1380"/>
      <point x="1397" y="1340"/>
      <point x="1413" y="1323" type="qcurve"/>
      <point x="1366" y="1298" type="line"/>
      <point x="1353" y="1312"/>
      <point x="1312" y="1342"/>
      <point x="1253" y="1368"/>
      <point x="1175" y="1384"/>
      <point x="1124" y="1384" type="qcurve" smooth="yes"/>
      <point x="1000" y="1384"/>
      <point x="759" y="1287"/>
      <point x="541" y="1119"/>
      <point x="356" y="894"/>
      <point x="220" y="639"/>
      <point x="144" y="368"/>
      <point x="144" y="238" type="qcurve" smooth="yes"/>
      <point x="144" y="176"/>
      <point x="169" y="66"/>
      <point x="195" y="19" type="qcurve"/>
      <point x="561" y="387" type="line"/>
      <point x="541" y="425"/>
      <point x="519" y="520"/>
      <point x="519" y="577" type="qcurve" smooth="yes"/>
      <point x="519" y="659"/>
      <point x="567" y="820"/>
      <point x="654" y="965"/>
      <point x="774" y="1088"/>
      <point x="919" y="1177"/>
      <point x="1084" y="1228"/>
      <point x="1171" y="1228" type="qcurve" smooth="yes"/>
      <point x="1223" y="1228"/>
      <point x="1315" y="1205"/>
      <point x="1354" y="1183" type="qcurve"/>
      <point x="1674" y="1505" type="line"/>
      <point x="1720" y="1461" type="line"/>
      <point x="1407" y="1146" type="line"/>
      <point x="1467" y="1093"/>
      <point x="1533" y="929"/>
      <point x="1533" y="823" type="qcurve" smooth="yes"/>
      <point x="1533" y="735"/>
      <point x="1490" y="550"/>
      <point x="1411" y="369"/>
      <point x="1299" y="196"/>
      <point x="1163" y="42"/>
      <point x="1006" y="-87"/>
      <point x="834" y="-181"/>
      <point x="652" y="-233"/>
      <point x="560" y="-233" type="qcurve" smooth="yes"/>
      <point x="448" y="-233"/>
      <point x="255" y="-157"/>
      <point x="183" y="-83" type="qcurve"/>
      <point x="-79" y="-347" type="line"/>
    </contour>
    <contour>
      <point x="808" y="207" type="line"/>
      <point x="752" y="215"/>
      <point x="639" y="276"/>
      <point x="596" y="332" type="qcurve"/>
      <point x="231" y="-35" type="line"/>
      <point x="285" y="-104"/>
      <point x="451" y="-181"/>
      <point x="560" y="-181" type="qcurve" smooth="yes"/>
      <point x="646" y="-181"/>
      <point x="817" y="-131"/>
      <point x="979" y="-41"/>
      <point x="1128" y="84"/>
      <point x="1258" y="231"/>
      <point x="1364" y="396"/>
      <point x="1440" y="568"/>
      <point x="1481" y="742"/>
      <point x="1481" y="824" type="qcurve" smooth="yes"/>
      <point x="1481" y="923"/>
      <point x="1421" y="1064"/>
      <point x="1369" y="1109" type="qcurve"/>
      <point x="666" y="402" type="line"/>
      <point x="691" y="342"/>
      <point x="771" y="263"/>
      <point x="817" y="249" type="qcurve"/>
    </contour>
    <contour>
      <point x="637" y="556" type="qcurve" smooth="yes"/>
      <point x="637" y="533"/>
      <point x="640" y="491"/>
      <point x="645" y="471" type="qcurve"/>
      <point x="1315" y="1144" type="line"/>
      <point x="1251" y="1176"/>
      <point x="1173" y="1176" type="qcurve" smooth="yes"/>
      <point x="1108" y="1176"/>
      <point x="978" y="1129"/>
      <point x="859" y="1044"/>
      <point x="756" y="928"/>
      <point x="680" y="791"/>
      <point x="637" y="636"/>
    </contour>
  </outline>
</glyph>
<glyph name="Thorn" format="2">
  <advance width="1769"/>
  <unicode hex="00DE"/>
  <outline>
    <contour>
      <point x="1836" y="1461" type="line"/>
      <point x="1747" y="1395"/>
      <point x="1596" y="1199"/>
      <point x="1524" y="1071" type="qcurve"/>
      <point x="1593" y="1034"/>
      <point x="1686" y="940"/>
      <point x="1743" y="841"/>
      <point x="1767" y="743"/>
      <point x="1767" y="703" type="qcurve" smooth="yes"/>
      <point x="1767" y="605"/>
      <point x="1693" y="460"/>
      <point x="1572" y="364"/>
      <point x="1415" y="317"/>
      <point x="1331" y="317" type="qcurve" smooth="yes"/>
      <point x="1238" y="317"/>
      <point x="1148" y="338" type="qcurve"/>
      <point x="1088" y="245"/>
      <point x="947" y="81"/>
      <point x="780" y="-41"/>
      <point x="585" y="-111"/>
      <point x="471" y="-111" type="qcurve" smooth="yes"/>
      <point x="372" y="-111"/>
      <point x="209" y="-53"/>
      <point x="93" y="55"/>
      <point x="30" y="210"/>
      <point x="30" y="307" type="qcurve" smooth="yes"/>
      <point x="30" y="428"/>
      <point x="106" y="649"/>
      <point x="246" y="838"/>
      <point x="442" y="992"/>
      <point x="683" y="1101"/>
      <point x="962" y="1160"/>
      <point x="1114" y="1160" type="qcurve" smooth="yes"/>
      <point x="1211" y="1160"/>
      <point x="1370" y="1134"/>
      <point x="1434" y="1111" type="qcurve"/>
      <point x="1512" y="1234"/>
      <point x="1697" y="1425"/>
      <point x="1820" y="1484" type="qcurve"/>
    </contour>
    <contour>
      <point x="1201" y="670" type="qcurve" smooth="yes"/>
      <point x="1254" y="779"/>
      <point x="1354" y="977"/>
      <point x="1407" y="1066" type="qcurve"/>
      <point x="1348" y="1084"/>
      <point x="1214" y="1101"/>
      <point x="1140" y="1101" type="qcurve" smooth="yes"/>
      <point x="979" y="1101"/>
      <point x="701" y="1026"/>
      <point x="472" y="898"/>
      <point x="293" y="729"/>
      <point x="171" y="543"/>
      <point x="107" y="351"/>
      <point x="107" y="263" type="qcurve" smooth="yes"/>
      <point x="107" y="200"/>
      <point x="154" y="83"/>
      <point x="244" y="-5"/>
      <point x="373" y="-58"/>
      <point x="455" y="-58" type="qcurve" smooth="yes"/>
      <point x="552" y="-58"/>
      <point x="715" y="1"/>
      <point x="857" y="112"/>
      <point x="982" y="271"/>
      <point x="1042" y="371" type="qcurve"/>
      <point x="989" y="391"/>
      <point x="891" y="444"/>
      <point x="845" y="477" type="qcurve"/>
      <point x="861" y="505" type="line"/>
      <point x="910" y="480"/>
      <point x="1014" y="436"/>
      <point x="1070" y="419" type="qcurve"/>
      <point x="1102" y="476"/>
      <point x="1167" y="601"/>
    </contour>
    <contour>
      <point x="1662" y="760" type="qcurve" smooth="yes"/>
      <point x="1662" y="855"/>
      <point x="1575" y="985"/>
      <point x="1499" y="1027" type="qcurve"/>
      <point x="1452" y="940"/>
      <point x="1359" y="746"/>
      <point x="1310" y="639" type="qcurve" smooth="yes"/>
      <point x="1281" y="576"/>
      <point x="1218" y="453"/>
      <point x="1182" y="393" type="qcurve"/>
      <point x="1234" y="384"/>
      <point x="1289" y="384" type="qcurve" smooth="yes"/>
      <point x="1365" y="384"/>
      <point x="1500" y="438"/>
      <point x="1602" y="537"/>
      <point x="1662" y="675"/>
    </contour>
  </outline>
</glyph>
<glyph name="eth" format="2">
  <advance width="747"/>
  <unicode hex="00F0"/>
  <outline>
    <contour>
      <point x="510" y="1163" type="line"/>
      <point x="547" y="1120"/>
      <point x="614" y="1016"/>
      <point x="665" y="891"/>
      <point x="695" y="743"/>
      <point x="695" y="658" type="qcurve" smooth="yes"/>
      <point x="695" y="573"/>
      <point x="657" y="403"/>
      <point x="588" y="248"/>
      <point x="491" y="115"/>
      <point x="370" y="17"/>
      <point x="230" y="-39"/>
      <point x="153" y="-39" type="qcurve" smooth="yes"/>
      <point x="109" y="-39"/>
      <point x="34" y="-8"/>
      <point x="-20" y="50"/>
      <point x="-50" y="130"/>
      <point x="-50" y="180" type="qcurve" smooth="yes"/>
      <point x="-50" y="230"/>
      <point x="-15" y="341"/>
      <point x="50" y="450"/>
      <point x="143" y="552"/>
      <point x="258" y="634"/>
      <point x="394" y="690"/>
      <point x="469" y="700" type="qcurve"/>
      <point x="501" y="658" type="line"/>
      <point x="445" y="648"/>
      <point x="336" y="591"/>
      <point x="238" y="508"/>
      <point x="155" y="408"/>
      <point x="94" y="301"/>
      <point x="59" y="194"/>
      <point x="59" y="147" type="qcurve" smooth="yes"/>
      <point x="59" y="84"/>
      <point x="115" y="15"/>
      <point x="172" y="15" type="qcurve" smooth="yes"/>
      <point x="228" y="15"/>
      <point x="334" y="71"/>
      <point x="428" y="168"/>
      <point x="506" y="298"/>
      <point x="563" y="447"/>
      <point x="595" y="606"/>
      <point x="595" y="684" type="qcurve" smooth="yes"/>
      <point x="595" y="759"/>
      <point x="575" y="888"/>
      <point x="540" y="996"/>
      <point x="492" y="1085"/>
      <point x="464" y="1122" type="qcurve"/>
      <point x="287" y="966" type="line"/>
      <point x="250" y="1011" type="line"/>
      <point x="426" y="1166" type="line"/>
      <point x="376" y="1220"/>
      <point x="272" y="1290"/>
      <point x="227" y="1316" type="qcurve"/>
      <point x="260" y="1364" type="line"/>
      <point x="276" y="1355"/>
      <point x="322" y="1327"/>
      <point x="377" y="1288"/>
      <point x="439" y="1237"/>
      <point x="471" y="1206" type="qcurve"/>
      <point x="647" y="1362" type="line"/>
      <point x="685" y="1317" type="line"/>
    </contour>
  </outline>
</glyph>
<glyph name="divide" format="2">
  <advance width="800"/>
  <unicode hex="00F7"/>
  <outline>
    <contour>
      <point x="465" y="904" type="qcurve" smooth="yes"/>
      <point x="465" y="929"/>
      <point x="499" y="963"/>
      <point x="524" y="963" type="qcurve" smooth="yes"/>
      <point x="549" y="963"/>
      <point x="583" y="929"/>
      <point x="583" y="904" type="qcurve" smooth="yes"/>
      <point x="583" y="879"/>
      <point x="549" y="845"/>
      <point x="524" y="845" type="qcurve" smooth="yes"/>
      <point x="499" y="845"/>
      <point x="465" y="879"/>
    </contour>
    <contour>
      <point x="307" y="465" type="qcurve" smooth="yes"/>
      <point x="307" y="490"/>
      <point x="341" y="524"/>
      <point x="366" y="524" type="qcurve" smooth="yes"/>
      <point x="391" y="524"/>
      <point x="425" y="490"/>
      <point x="425" y="465" type="qcurve" smooth="yes"/>
      <point x="425" y="440"/>
      <point x="391" y="406"/>
      <point x="366" y="406" type="qcurve" smooth="yes"/>
      <point x="341" y="406"/>
      <point x="307" y="440"/>
    </contour>
    <contour>
      <point x="140" y="655" type="line"/>
      <point x="167" y="710" type="line"/>
      <point x="749" y="710" type="line"/>
      <point x="722" y="655" type="line"/>
    </contour>
  </outline>
</glyph>
<glyph name="Aogonek" format="2">
  <advance width="2330"/>
  <unicode hex="0104"/>
  <outline>
    <contour>
      <point x="1808" y="-304" type="line"/>
      <point x="1792" y="-311"/>
      <point x="1747" y="-327"/>
      <point x="1713" y="-327" type="qcurve" smooth="yes"/>
      <point x="1651" y="-327"/>
      <point x="1589" y="-268"/>
      <point x="1589" y="-227" type="qcurve" smooth="yes"/>
      <point x="1589" y="-190"/>
      <point x="1630" y="-129"/>
      <point x="1690" y="-80"/>
      <point x="1757" y="-45"/>
      <point x="1783" y="-35" type="qcurve"/>
      <point x="1716" y="-14" type="line"/>
      <point x="1731" y="21"/>
      <point x="1761" y="89"/>
      <point x="1776" y="123" type="qcurve"/>
      <point x="1709" y="138"/>
      <point x="1561" y="178"/>
      <point x="1408" y="229"/>
      <point x="1256" y="293"/>
      <point x="1186" y="331" type="qcurve"/>
      <point x="1121" y="256"/>
      <point x="969" y="111"/>
      <point x="795" y="-4"/>
      <point x="600" y="-75"/>
      <point x="492" y="-75" type="qcurve" smooth="yes"/>
      <point x="396" y="-75"/>
      <point x="205" y="-18"/>
      <point x="54" y="91"/>
      <point x="-40" y="248"/>
      <point x="-40" y="348" type="qcurve" smooth="yes"/>
      <point x="-40" y="427"/>
      <point x="19" y="547"/>
      <point x="122" y="627"/>
      <point x="261" y="668"/>
      <point x="341" y="668" type="qcurve" smooth="yes"/>
      <point x="402" y="668"/>
      <point x="533" y="644"/>
      <point x="657" y="588"/>
      <point x="767" y="496"/>
      <point x="806" y="428" type="qcurve"/>
      <point x="762" y="400" type="line"/>
      <point x="761" y="402"/>
      <point x="740" y="429"/>
      <point x="699" y="468"/>
      <point x="635" y="512"/>
      <point x="546" y="549"/>
      <point x="429" y="574"/>
      <point x="355" y="574" type="qcurve" smooth="yes"/>
      <point x="280" y="574"/>
      <point x="168" y="523"/>
      <point x="93" y="444"/>
      <point x="56" y="346"/>
      <point x="56" y="300" type="qcurve" smooth="yes"/>
      <point x="56" y="246"/>
      <point x="94" y="157"/>
      <point x="159" y="85"/>
      <point x="246" y="32"/>
      <point x="343" y="-4"/>
      <point x="444" y="-22"/>
      <point x="492" y="-22" type="qcurve" smooth="yes"/>
      <point x="591" y="-22"/>
      <point x="773" y="43"/>
      <point x="935" y="150"/>
      <point x="1078" y="286"/>
      <point x="1139" y="357" type="qcurve"/>
      <point x="1071" y="398"/>
      <point x="956" y="493"/>
      <point x="872" y="602"/>
      <point x="825" y="727"/>
      <point x="825" y="797" type="qcurve" smooth="yes"/>
      <point x="825" y="855"/>
      <point x="868" y="957"/>
      <point x="943" y="1034"/>
      <point x="1046" y="1079"/>
      <point x="1105" y="1079" type="qcurve" smooth="yes"/>
      <point x="1171" y="1079"/>
      <point x="1289" y="1038"/>
      <point x="1395" y="967"/>
      <point x="1488" y="869"/>
      <point x="1529" y="812" type="qcurve"/>
      <point x="1641" y="937"/>
      <point x="1864" y="1158"/>
      <point x="2070" y="1324"/>
      <point x="2253" y="1421"/>
      <point x="2327" y="1421" type="qcurve" smooth="yes"/>
      <point x="2356" y="1421"/>
      <point x="2411" y="1402"/>
      <point x="2454" y="1367"/>
      <point x="2480" y="1316"/>
      <point x="2480" y="1284" type="qcurve" smooth="yes"/>
      <point x="2480" y="1222"/>
      <point x="2400" y="1064"/>
      <point x="2336" y="958" type="qcurve" smooth="yes"/>
      <point x="2267" y="845"/>
      <point x="2145" y="620"/>
      <point x="2040" y="411"/>
      <point x="1953" y="226"/>
      <point x="1921" y="153" type="qcurve"/>
      <point x="1961" y="148"/>
      <point x="2041" y="142"/>
      <point x="2073" y="143" type="qcurve"/>
      <point x="2075" y="91" type="line"/>
      <point x="2068" y="91"/>
      <point x="1977" y="92"/>
      <point x="1899" y="103" type="qcurve"/>
      <point x="1868" y="31"/>
      <point x="1835" y="-49"/>
      <point x="1835" y="-51" type="qcurve" smooth="yes"/>
      <point x="1821" y="-58"/>
      <point x="1769" y="-83"/>
      <point x="1717" y="-123"/>
      <point x="1678" y="-177"/>
      <point x="1678" y="-212" type="qcurve" smooth="yes"/>
      <point x="1678" y="-244"/>
      <point x="1724" y="-277"/>
      <point x="1753" y="-277" type="qcurve" smooth="yes"/>
      <point x="1774" y="-277"/>
      <point x="1810" y="-265"/>
      <point x="1818" y="-262" type="qcurve"/>
    </contour>
    <contour>
      <point x="1560" y="766" type="qcurve"/>
      <point x="1607" y="694"/>
      <point x="1685" y="540"/>
      <point x="1748" y="392"/>
      <point x="1797" y="259"/>
      <point x="1815" y="208" type="qcurve"/>
      <point x="1932" y="463"/>
      <point x="2198" y="953"/>
      <point x="2364" y="1192" type="qcurve" smooth="yes"/>
      <point x="2391" y="1232"/>
      <point x="2414" y="1285"/>
      <point x="2414" y="1304" type="qcurve" smooth="yes"/>
      <point x="2414" y="1336"/>
      <point x="2360" y="1369"/>
      <point x="2325" y="1369" type="qcurve" smooth="yes"/>
      <point x="2214" y="1369"/>
      <point x="1831" y="1066"/>
    </contour>
    <contour>
      <point x="916" y="749" type="qcurve" smooth="yes"/>
      <point x="916" y="696"/>
      <point x="956" y="601"/>
      <point x="1026" y="514"/>
      <point x="1122" y="437"/>
      <point x="1178" y="403" type="qcurve"/>
      <point x="1253" y="494"/>
      <point x="1409" y="678"/>
      <point x="1489" y="768" type="qcurve"/>
      <point x="1454" y="814"/>
      <point x="1379" y="893"/>
      <point x="1297" y="951"/>
      <point x="1209" y="983"/>
      <point x="1162" y="983" type="qcurve" smooth="yes"/>
      <point x="1109" y="983"/>
      <point x="1019" y="947"/>
      <point x="953" y="884"/>
      <point x="916" y="799"/>
    </contour>
    <contour>
      <point x="1771" y="179" type="qcurve"/>
      <point x="1757" y="224"/>
      <point x="1710" y="352"/>
      <point x="1647" y="499"/>
      <point x="1568" y="653"/>
      <point x="1521" y="723" type="qcurve"/>
      <point x="1452" y="645"/>
      <point x="1304" y="473"/>
      <point x="1224" y="376" type="qcurve"/>
      <point x="1294" y="337"/>
      <point x="1447" y="274"/>
      <point x="1592" y="225"/>
      <point x="1723" y="189"/>
    </contour>
  </outline>
</glyph>
<glyph name="Eogonek" format="2">
  <advance width="1337"/>
  <unicode hex="0118"/>
  <outline>
    <contour>
      <point x="605" y="-452" type="line"/>
      <point x="589" y="-459"/>
      <point x="544" y="-475"/>
      <point x="510" y="-475" type="qcurve" smooth="yes"/>
      <point x="448" y="-475"/>
      <point x="386" y="-416"/>
      <point x="386" y="-375" type="qcurve" smooth="yes"/>
      <point x="386" y="-342"/>
      <point x="419" y="-286"/>
      <point x="470" y="-240"/>
      <point x="530" y="-205"/>
      <point x="556" y="-193" type="qcurve"/>
      <point x="542" y="-194"/>
      <point x="516" y="-195"/>
      <point x="502" y="-195" type="qcurve" smooth="yes"/>
      <point x="367" y="-195"/>
      <point x="171" y="-127"/>
      <point x="42" y="-12"/>
      <point x="-20" y="139"/>
      <point x="-20" y="223" type="qcurve" smooth="yes"/>
      <point x="-20" y="282"/>
      <point x="10" y="404"/>
      <point x="72" y="520"/>
      <point x="170" y="624"/>
      <point x="304" y="704"/>
      <point x="478" y="754"/>
      <point x="586" y="759" type="qcurve"/>
      <point x="568" y="795"/>
      <point x="548" y="874"/>
      <point x="548" y="916" type="qcurve" smooth="yes"/>
      <point x="548" y="993"/>
      <point x="600" y="1130"/>
      <point x="691" y="1245"/>
      <point x="814" y="1335"/>
      <point x="954" y="1398"/>
      <point x="1105" y="1431"/>
      <point x="1179" y="1431" type="qcurve" smooth="yes"/>
      <point x="1255" y="1431"/>
      <point x="1374" y="1400"/>
      <point x="1456" y="1344"/>
      <point x="1500" y="1265"/>
      <point x="1500" y="1218" type="qcurve" smooth="yes"/>
      <point x="1500" y="1166"/>
      <point x="1457" y="1074"/>
      <point x="1384" y="999"/>
      <point x="1287" y="940"/>
      <point x="1178" y="900"/>
      <point x="1062" y="879"/>
      <point x="1008" y="879" type="qcurve" smooth="yes"/>
      <point x="990" y="879"/>
      <point x="968" y="881"/>
      <point x="966" y="881" type="qcurve"/>
      <point x="972" y="933" type="line"/>
      <point x="975" y="932"/>
      <point x="980" y="932" type="qcurve" smooth="yes"/>
      <point x="1004" y="932" type="line" smooth="yes"/>
      <point x="1082" y="932"/>
      <point x="1240" y="974"/>
      <point x="1368" y="1049"/>
      <point x="1448" y="1154"/>
      <point x="1448" y="1217" type="qcurve" smooth="yes"/>
      <point x="1448" y="1251"/>
      <point x="1418" y="1304"/>
      <point x="1365" y="1340"/>
      <point x="1290" y="1359"/>
      <point x="1245" y="1359" type="qcurve" smooth="yes"/>
      <point x="1166" y="1359"/>
      <point x="1016" y="1319"/>
      <point x="884" y="1250"/>
      <point x="774" y="1157"/>
      <point x="694" y="1048"/>
      <point x="650" y="930"/>
      <point x="650" y="871" type="qcurve" smooth="yes"/>
      <point x="650" y="812"/>
      <point x="672" y="759" type="qcurve"/>
      <point x="741" y="757"/>
      <point x="861" y="741"/>
      <point x="949" y="708"/>
      <point x="999" y="656"/>
      <point x="999" y="619" type="qcurve" smooth="yes"/>
      <point x="999" y="579"/>
      <point x="939" y="537"/>
      <point x="894" y="537" type="qcurve" smooth="yes"/>
      <point x="858" y="537"/>
      <point x="782" y="561"/>
      <point x="711" y="604"/>
      <point x="646" y="665"/>
      <point x="620" y="702" type="qcurve"/>
      <point x="509" y="693"/>
      <point x="320" y="608"/>
      <point x="183" y="473"/>
      <point x="105" y="298"/>
      <point x="105" y="201" type="qcurve" smooth="yes"/>
      <point x="105" y="122"/>
      <point x="158" y="-5"/>
      <point x="263" y="-95"/>
      <point x="420" y="-143"/>
      <point x="523" y="-143" type="qcurve" smooth="yes"/>
      <point x="637" y="-143"/>
      <point x="842" y="-74"/>
      <point x="1016" y="32"/>
      <point x="1158" y="159"/>
      <point x="1263" y="273"/>
      <point x="1327" y="360"/>
      <point x="1337" y="373" type="qcurve"/>
      <point x="1373" y="345" type="line"/>
      <point x="1353" y="315"/>
      <point x="1286" y="223"/>
      <point x="1192" y="118"/>
      <point x="1073" y="8"/>
      <point x="926" y="-89"/>
      <point x="752" y="-164"/>
      <point x="652" y="-182" type="qcurve"/>
      <point x="635" y="-190"/>
      <point x="576" y="-223"/>
      <point x="518" y="-269"/>
      <point x="475" y="-327"/>
      <point x="475" y="-360" type="qcurve" smooth="yes"/>
      <point x="475" y="-392"/>
      <point x="521" y="-425"/>
      <point x="550" y="-425" type="qcurve" smooth="yes"/>
      <point x="571" y="-425"/>
      <point x="607" y="-413"/>
      <point x="615" y="-410" type="qcurve"/>
    </contour>
    <contour>
      <point x="946" y="621" type="qcurve" smooth="yes"/>
      <point x="946" y="645"/>
      <point x="903" y="676"/>
      <point x="834" y="694"/>
      <point x="747" y="703"/>
      <point x="702" y="704" type="qcurve"/>
      <point x="721" y="676"/>
      <point x="768" y="633"/>
      <point x="818" y="603"/>
      <point x="869" y="587"/>
      <point x="892" y="587" type="qcurve" smooth="yes"/>
      <point x="919" y="587"/>
      <point x="946" y="607"/>
    </contour>
  </outline>
</glyph>
<glyph name="gcommaaccent" format="2">
  <advance width="924"/>
  <unicode hex="0123"/>
  <outline>
    <contour>
      <point x="381" y="34" type="qcurve"/>
      <point x="329" y="-1"/>
      <point x="218" y="-44"/>
      <point x="167" y="-44" type="qcurve" smooth="yes"/>
      <point x="129" y="-44"/>
      <point x="53" y="-22"/>
      <point x="-9" y="29"/>
      <point x="-48" y="113"/>
      <point x="-48" y="175" type="qcurve" smooth="yes"/>
      <point x="-48" y="250"/>
      <point x="6" y="388"/>
      <point x="96" y="507"/>
      <point x="212" y="605"/>
      <point x="335" y="674"/>
      <point x="457" y="712"/>
      <point x="507" y="712" type="qcurve" smooth="yes"/>
      <point x="556" y="712"/>
      <point x="625" y="691"/>
      <point x="673" y="660"/>
      <point x="701" y="624"/>
      <point x="710" y="608" type="qcurve"/>
      <point x="764" y="679" type="line"/>
      <point x="797" y="657" type="line" smooth="yes"/>
      <point x="797" y="656"/>
      <point x="765" y="595"/>
      <point x="713" y="493"/>
      <point x="644" y="356"/>
      <point x="569" y="202"/>
      <point x="492" y="38"/>
      <point x="457" y="-41" type="qcurve"/>
      <point x="548" y="11"/>
      <point x="686" y="107"/>
      <point x="795" y="205"/>
      <point x="883" y="311"/>
      <point x="924" y="373" type="qcurve"/>
      <point x="961" y="345" type="line"/>
      <point x="921" y="280"/>
      <point x="828" y="169"/>
      <point x="703" y="60"/>
      <point x="536" y="-55"/>
      <point x="421" y="-124" type="qcurve"/>
      <point x="326" y="-357"/>
      <point x="150" y="-662"/>
      <point x="-7" y="-840"/>
      <point x="-142" y="-912"/>
      <point x="-196" y="-912" type="qcurve" smooth="yes"/>
      <point x="-218" y="-912"/>
      <point x="-269" y="-901"/>
      <point x="-313" y="-869"/>
      <point x="-342" y="-813"/>
      <point x="-342" y="-769" type="qcurve" smooth="yes"/>
      <point x="-342" y="-685"/>
      <point x="-253" y="-521"/>
      <point x="-84" y="-359"/>
      <point x="161" y="-199"/>
      <point x="316" y="-118" type="qcurve"/>
      <point x="335" y="-75"/>
      <point x="367" y="2"/>
    </contour>
    <contour>
      <point x="433" y="144" type="qcurve"/>
      <point x="460" y="195"/>
      <point x="513" y="294"/>
      <point x="570" y="393"/>
      <point x="635" y="497"/>
      <point x="675" y="553" type="qcurve"/>
      <point x="673" y="568"/>
      <point x="657" y="600"/>
      <point x="629" y="627"/>
      <point x="585" y="645"/>
      <point x="555" y="645" type="qcurve" smooth="yes"/>
      <point x="521" y="645"/>
      <point x="434" y="627"/>
      <point x="338" y="583"/>
      <point x="239" y="509"/>
      <point x="192" y="453" type="qcurve" smooth="yes"/>
      <point x="123" y="371"/>
      <point x="49" y="208"/>
      <point x="49" y="141" type="qcurve" smooth="yes"/>
      <point x="49" y="76"/>
      <point x="115" y="9"/>
      <point x="172" y="9" type="qcurve" smooth="yes"/>
      <point x="232" y="9"/>
      <point x="367" y="83"/>
    </contour>
    <contour>
      <point x="-196" y="-861" type="qcurve" smooth="yes"/>
      <point x="-158" y="-861"/>
      <point x="-76" y="-805"/>
      <point x="8" y="-708"/>
      <point x="90" y="-580"/>
      <point x="170" y="-435"/>
      <point x="243" y="-283"/>
      <point x="276" y="-210" type="qcurve"/>
      <point x="127" y="-288"/>
      <point x="-84" y="-457"/>
      <point x="-218" y="-611"/>
      <point x="-279" y="-735"/>
      <point x="-279" y="-768" type="qcurve" smooth="yes"/>
      <point x="-279" y="-809"/>
      <point x="-243" y="-861"/>
    </contour>
    <contour>
      <point x="572" y="864" type="qcurve" smooth="yes"/>
      <point x="545" y="864"/>
      <point x="509" y="902"/>
      <point x="509" y="928" type="qcurve" smooth="yes"/>
      <point x="509" y="954"/>
      <point x="536" y="1005"/>
      <point x="579" y="1051"/>
      <point x="630" y="1089"/>
      <point x="654" y="1103" type="qcurve"/>
      <point x="682" y="1070" type="line"/>
      <point x="670" y="1062"/>
      <point x="642" y="1041"/>
      <point x="616" y="1018"/>
      <point x="595" y="996"/>
      <point x="591" y="987" type="qcurve"/>
      <point x="614" y="982"/>
      <point x="636" y="947"/>
      <point x="636" y="927" type="qcurve" smooth="yes"/>
      <point x="636" y="900"/>
      <point x="597" y="864"/>
    </contour>
  </outline>
</glyph>
<glyph name="iogonek" format="2">
  <advance width="372"/>
  <unicode hex="012F"/>
  <outline>
    <contour>
      <point x="103" y="-234" type="line"/>
      <point x="87" y="-241"/>
      <point x="42" y="-257"/>
      <point x="8" y="-257" type="qcurve" smooth="yes"/>
      <point x="-54" y="-257"/>
      <point x="-116" y="-198"/>
      <point x="-116" y="-157" type="qcurve" smooth="yes"/>
      <point x="-116" y="-129"/>
      <point x="-91" y="-80"/>
      <point x="-51" y="-38"/>
      <point x="-1" y="-4"/>
      <point x="23" y="9" type="qcurve"/>
      <point x="-27" y="16"/>
      <point x="-80" y="85"/>
      <point x="-80" y="137" type="qcurve" smooth="yes"/>
      <point x="-80" y="204"/>
      <point x="-18" y="350"/>
      <point x="75" y="493"/>
      <point x="184" y="625"/>
      <point x="230" y="679" type="qcurve"/>
      <point x="262" y="665" type="line"/>
      <point x="249" y="639"/>
      <point x="202" y="554"/>
      <point x="148" y="453"/>
      <point x="92" y="342"/>
      <point x="47" y="237"/>
      <point x="19" y="145"/>
      <point x="19" y="113" type="qcurve" smooth="yes"/>
      <point x="19" y="84"/>
      <point x="43" y="63"/>
      <point x="65" y="63" type="qcurve" smooth="yes"/>
      <point x="106" y="63"/>
      <point x="184" y="117"/>
      <point x="261" y="204"/>
      <point x="335" y="316"/>
      <point x="372" y="373" type="qcurve"/>
      <point x="408" y="345" type="line"/>
      <point x="384" y="302"/>
      <point x="324" y="205"/>
      <point x="254" y="115"/>
      <point x="172" y="42"/>
      <point x="126" y="24" type="qcurve" smooth="yes"/>
      <point x="104" y="15"/>
      <point x="51" y="-17"/>
      <point x="4" y="-61"/>
      <point x="-27" y="-113"/>
      <point x="-27" y="-142" type="qcurve" smooth="yes"/>
      <point x="-27" y="-174"/>
      <point x="19" y="-207"/>
      <point x="48" y="-207" type="qcurve" smooth="yes"/>
      <point x="69" y="-207"/>
      <point x="105" y="-195"/>
      <point x="113" y="-192" type="qcurve"/>
    </contour>
    <contour>
      <point x="449" y="887" type="qcurve" smooth="yes"/>
      <point x="449" y="867"/>
      <point x="429" y="824"/>
      <point x="398" y="790"/>
      <point x="360" y="768"/>
      <point x="341" y="768" type="qcurve" smooth="yes"/>
      <point x="324" y="768"/>
      <point x="306" y="793"/>
      <point x="306" y="811" type="qcurve" smooth="yes"/>
      <point x="306" y="827"/>
      <point x="318" y="871"/>
      <point x="342" y="910"/>
      <point x="376" y="938"/>
      <point x="398" y="938" type="qcurve" smooth="yes"/>
      <point x="419" y="938"/>
      <point x="449" y="906"/>
    </contour>
  </outline>
</glyph>
<glyph name="kgreenlandic" format="2">
  <advance width="1043"/>
  <unicode hex="0138"/>
  <outline>
    <contour>
      <point x="0" y="373" type="line"/>
      <point x="51" y="453"/>
      <point x="134" y="586"/>
      <point x="211" y="682"/>
      <point x="284" y="735"/>
      <point x="325" y="735" type="qcurve" smooth="yes"/>
      <point x="347" y="735"/>
      <point x="388" y="717"/>
      <point x="419" y="682"/>
      <point x="437" y="632"/>
      <point x="437" y="599" type="qcurve" smooth="yes"/>
      <point x="437" y="576"/>
      <point x="426" y="525"/>
      <point x="417" y="497" type="qcurve"/>
      <point x="459" y="545"/>
      <point x="548" y="627"/>
      <point x="637" y="687"/>
      <point x="726" y="721"/>
      <point x="769" y="721" type="qcurve" smooth="yes"/>
      <point x="805" y="721"/>
      <point x="851" y="699"/>
      <point x="878" y="665"/>
      <point x="889" y="622"/>
      <point x="889" y="601" type="qcurve" smooth="yes"/>
      <point x="889" y="571"/>
      <point x="866" y="501"/>
      <point x="819" y="430"/>
      <point x="747" y="365"/>
      <point x="697" y="339" type="qcurve"/>
      <point x="708" y="313"/>
      <point x="708" y="276" type="qcurve" smooth="yes"/>
      <point x="708" y="253"/>
      <point x="696" y="206"/>
      <point x="682" y="160"/>
      <point x="670" y="113"/>
      <point x="670" y="89" type="qcurve" smooth="yes"/>
      <point x="670" y="77"/>
      <point x="673" y="55"/>
      <point x="682" y="37"/>
      <point x="701" y="26"/>
      <point x="718" y="26" type="qcurve" smooth="yes"/>
      <point x="738" y="26"/>
      <point x="790" y="59"/>
      <point x="848" y="113"/>
      <point x="909" y="184"/>
      <point x="967" y="262"/>
      <point x="1021" y="339"/>
      <point x="1043" y="373" type="qcurve"/>
      <point x="1080" y="345" type="line"/>
      <point x="1029" y="269"/>
      <point x="932" y="131"/>
      <point x="835" y="27"/>
      <point x="735" y="-35"/>
      <point x="682" y="-35" type="qcurve" smooth="yes"/>
      <point x="661" y="-35"/>
      <point x="616" y="-23"/>
      <point x="579" y="4"/>
      <point x="555" y="48"/>
      <point x="555" y="80" type="qcurve" smooth="yes"/>
      <point x="555" y="118"/>
      <point x="574" y="169" type="qcurve" smooth="yes"/>
      <point x="591" y="217"/>
      <point x="607" y="282"/>
      <point x="608" y="304" type="qcurve"/>
      <point x="587" y="299"/>
      <point x="540" y="291"/>
      <point x="519" y="291" type="qcurve" smooth="yes"/>
      <point x="508" y="291"/>
      <point x="482" y="296"/>
      <point x="460" y="308"/>
      <point x="445" y="327"/>
      <point x="445" y="342" type="qcurve" smooth="yes"/>
      <point x="445" y="357"/>
      <point x="464" y="384"/>
      <point x="497" y="405"/>
      <point x="543" y="417"/>
      <point x="571" y="417" type="qcurve" smooth="yes"/>
      <point x="623" y="417"/>
      <point x="660" y="389" type="qcurve"/>
      <point x="696" y="417"/>
      <point x="743" y="483"/>
      <point x="769" y="545"/>
      <point x="779" y="594"/>
      <point x="779" y="606" type="qcurve" smooth="yes"/>
      <point x="779" y="639"/>
      <point x="755" y="664"/>
      <point x="738" y="664" type="qcurve" smooth="yes"/>
      <point x="708" y="664"/>
      <point x="635" y="627"/>
      <point x="555" y="563"/>
      <point x="471" y="479"/>
      <point x="391" y="385"/>
      <point x="315" y="285"/>
      <point x="284" y="239" type="qcurve" smooth="yes"/>
      <point x="253" y="190"/>
      <point x="222" y="142" type="qcurve" smooth="yes"/>
      <point x="196" y="100"/>
      <point x="133" y="5"/>
      <point x="107" y="-36" type="qcurve"/>
      <point x="19" y="0" type="line"/>
      <point x="76" y="94"/>
      <point x="164" y="238"/>
      <point x="231" y="351"/>
      <point x="280" y="440"/>
      <point x="300" y="480" type="qcurve" smooth="yes"/>
      <point x="329" y="540"/>
      <point x="351" y="619"/>
      <point x="351" y="643" type="qcurve" smooth="yes"/>
      <point x="351" y="670"/>
      <point x="331" y="687"/>
      <point x="313" y="687" type="qcurve" smooth="yes"/>
      <point x="294" y="687"/>
      <point x="245" y="648"/>
      <point x="193" y="587"/>
      <point x="140" y="510"/>
      <point x="92" y="434"/>
      <point x="50" y="366"/>
      <point x="36" y="345" type="qcurve"/>
    </contour>
    <contour>
      <point x="603" y="349" type="qcurve"/>
      <point x="598" y="360"/>
      <point x="575" y="377"/>
      <point x="561" y="377" type="qcurve" smooth="yes"/>
      <point x="532" y="377"/>
      <point x="488" y="353"/>
      <point x="488" y="342" type="qcurve" smooth="yes"/>
      <point x="488" y="334"/>
      <point x="507" y="329"/>
      <point x="515" y="329" type="qcurve" smooth="yes"/>
      <point x="541" y="329"/>
      <point x="585" y="341"/>
    </contour>
  </outline>
</glyph>
<glyph name="lslash" format="2">
  <advance width="562"/>
  <unicode hex="0142"/>
  <outline>
    <contour>
      <point x="357" y="573" type="line"/>
      <point x="316" y="524"/>
      <point x="240" y="436"/>
      <point x="174" y="363"/>
      <point x="119" y="308"/>
      <point x="100" y="291" type="qcurve"/>
      <point x="100" y="264"/>
      <point x="99" y="181"/>
      <point x="117" y="102"/>
      <point x="162" y="45"/>
      <point x="207" y="45" type="qcurve" smooth="yes"/>
      <point x="241" y="45"/>
      <point x="310" y="80"/>
      <point x="378" y="136"/>
      <point x="442" y="207"/>
      <point x="499" y="280"/>
      <point x="545" y="348"/>
      <point x="562" y="373" type="qcurve"/>
      <point x="599" y="345" type="line"/>
      <point x="596" y="341"/>
      <point x="563" y="286"/>
      <point x="509" y="208"/>
      <point x="435" y="119"/>
      <point x="349" y="43"/>
      <point x="254" y="-7"/>
      <point x="205" y="-7" type="qcurve" smooth="yes"/>
      <point x="164" y="-7"/>
      <point x="89" y="24"/>
      <point x="32" y="91"/>
      <point x="-3" y="195"/>
      <point x="-3" y="268" type="qcurve" smooth="yes"/>
      <point x="-3" y="309"/>
      <point x="6" y="392"/>
      <point x="14" y="436" type="qcurve"/>
      <point x="-129" y="379" type="line"/>
      <point x="-125" y="441" type="line"/>
      <point x="28" y="502" type="line"/>
      <point x="56" y="614"/>
      <point x="153" y="843"/>
      <point x="273" y="1055"/>
      <point x="410" y="1239"/>
      <point x="546" y="1376"/>
      <point x="673" y="1455"/>
      <point x="724" y="1455" type="qcurve" smooth="yes"/>
      <point x="759" y="1455"/>
      <point x="806" y="1421"/>
      <point x="806" y="1376" type="qcurve" smooth="yes"/>
      <point x="806" y="1310"/>
      <point x="740" y="1138"/>
      <point x="634" y="948"/>
      <point x="497" y="752"/>
      <point x="427" y="661" type="qcurve"/>
      <point x="693" y="767" type="line"/>
      <point x="689" y="706" type="line"/>
    </contour>
    <contour>
      <point x="725" y="1403" type="qcurve" smooth="yes"/>
      <point x="697" y="1403"/>
      <point x="609" y="1337"/>
      <point x="504" y="1220"/>
      <point x="389" y="1060"/>
      <point x="281" y="871"/>
      <point x="186" y="660"/>
      <point x="154" y="552" type="qcurve"/>
      <point x="330" y="622" type="line"/>
      <point x="420" y="733"/>
      <point x="574" y="956"/>
      <point x="688" y="1155"/>
      <point x="752" y="1317"/>
      <point x="752" y="1368" type="qcurve" smooth="yes"/>
      <point x="752" y="1376"/>
      <point x="736" y="1403"/>
    </contour>
    <contour>
      <point x="114" y="378" type="qcurve"/>
      <point x="150" y="415"/>
      <point x="220" y="493"/>
      <point x="255" y="533" type="qcurve"/>
      <point x="135" y="485" type="line"/>
      <point x="122" y="432"/>
    </contour>
  </outline>
</glyph>
<glyph name="eng" format="2">
  <advance width="1027"/>
  <unicode hex="014B"/>
  <outline>
    <contour>
      <point x="1063" y="345" type="line"/>
      <point x="1022" y="283"/>
      <point x="920" y="172"/>
      <point x="796" y="68"/>
      <point x="646" y="-34"/>
      <point x="557" y="-86" type="qcurve"/>
      <point x="528" y="-137"/>
      <point x="460" y="-257"/>
      <point x="384" y="-384"/>
      <point x="300" y="-514"/>
      <point x="211" y="-633"/>
      <point x="118" y="-737"/>
      <point x="23" y="-814"/>
      <point x="-73" y="-858"/>
      <point x="-121" y="-858" type="qcurve" smooth="yes"/>
      <point x="-142" y="-858"/>
      <point x="-181" y="-844"/>
      <point x="-213" y="-816"/>
      <point x="-232" y="-771"/>
      <point x="-232" y="-739" type="qcurve" smooth="yes"/>
      <point x="-232" y="-568"/>
      <point x="97" y="-244"/>
      <point x="420" y="-91" type="qcurve"/>
      <point x="453" y="-33"/>
      <point x="529" y="100"/>
      <point x="605" y="234"/>
      <point x="676" y="362"/>
      <point x="730" y="469"/>
      <point x="762" y="547"/>
      <point x="762" y="565" type="qcurve" smooth="yes"/>
      <point x="762" y="596"/>
      <point x="729" y="638"/>
      <point x="699" y="638" type="qcurve" smooth="yes"/>
      <point x="667" y="638"/>
      <point x="583" y="585"/>
      <point x="479" y="483"/>
      <point x="356" y="334"/>
      <point x="284" y="239" type="qcurve" smooth="yes"/>
      <point x="243" y="184"/>
      <point x="204" y="133" type="qcurve" smooth="yes"/>
      <point x="187" y="111"/>
      <point x="153" y="65"/>
      <point x="119" y="20"/>
      <point x="89" y="-21"/>
      <point x="77" y="-36" type="qcurve"/>
      <point x="-11" y="0" type="line"/>
      <point x="106" y="161" type="line" smooth="yes"/>
      <point x="131" y="195"/>
      <point x="183" y="273"/>
      <point x="234" y="356"/>
      <point x="280" y="440"/>
      <point x="300" y="480" type="qcurve" smooth="yes"/>
      <point x="329" y="540"/>
      <point x="351" y="619"/>
      <point x="351" y="643" type="qcurve" smooth="yes"/>
      <point x="351" y="670"/>
      <point x="331" y="687"/>
      <point x="313" y="687" type="qcurve" smooth="yes"/>
      <point x="294" y="687"/>
      <point x="245" y="648"/>
      <point x="193" y="587"/>
      <point x="140" y="510"/>
      <point x="92" y="434"/>
      <point x="50" y="366"/>
      <point x="36" y="345" type="qcurve"/>
      <point x="0" y="373" type="line"/>
      <point x="51" y="453"/>
      <point x="134" y="586"/>
      <point x="211" y="682"/>
      <point x="284" y="735"/>
      <point x="325" y="735" type="qcurve" smooth="yes"/>
      <point x="347" y="735"/>
      <point x="388" y="717"/>
      <point x="419" y="682"/>
      <point x="437" y="632"/>
      <point x="437" y="599" type="qcurve" smooth="yes"/>
      <point x="437" y="573"/>
      <point x="431" y="545" type="qcurve"/>
      <point x="475" y="588"/>
      <point x="551" y="644"/>
      <point x="615" y="677"/>
      <point x="669" y="691"/>
      <point x="691" y="691" type="qcurve" smooth="yes"/>
      <point x="710" y="691"/>
      <point x="760" y="677"/>
      <point x="804" y="639"/>
      <point x="835" y="572"/>
      <point x="835" y="519" type="qcurve" smooth="yes"/>
      <point x="835" y="478"/>
      <point x="798" y="364"/>
      <point x="738" y="231"/>
      <point x="659" y="86"/>
      <point x="617" y="14" type="qcurve"/>
      <point x="772" y="106"/>
      <point x="971" y="285"/>
      <point x="1027" y="373" type="qcurve"/>
    </contour>
    <contour>
      <point x="-118" y="-805" type="qcurve" smooth="yes"/>
      <point x="-65" y="-805"/>
      <point x="50" y="-704"/>
      <point x="171" y="-535"/>
      <point x="297" y="-315"/>
      <point x="362" y="-196" type="qcurve"/>
      <point x="225" y="-270"/>
      <point x="23" y="-427"/>
      <point x="-110" y="-574"/>
      <point x="-175" y="-701"/>
      <point x="-175" y="-744" type="qcurve" smooth="yes"/>
      <point x="-175" y="-770"/>
      <point x="-148" y="-805"/>
    </contour>
  </outline>
</glyph>
<glyph name="Tbar" format="2">
  <advance width="1562"/>
  <unicode hex="0166"/>
  <outline>
    <contour>
      <point x="1580" y="1185" type="line"/>
      <point x="1522" y="1115"/>
      <point x="1426" y="968"/>
      <point x="1384" y="893" type="qcurve"/>
      <point x="1694" y="893" type="line"/>
      <point x="1664" y="828" type="line"/>
      <point x="1349" y="828" type="line"/>
      <point x="1287" y="709"/>
      <point x="1180" y="473"/>
      <point x="1068" y="259"/>
      <point x="943" y="74"/>
      <point x="781" y="-61"/>
      <point x="572" y="-138"/>
      <point x="434" y="-138" type="qcurve" smooth="yes"/>
      <point x="319" y="-138"/>
      <point x="142" y="-79"/>
      <point x="22" y="24"/>
      <point x="-40" y="163"/>
      <point x="-40" y="244" type="qcurve" smooth="yes"/>
      <point x="-40" y="275"/>
      <point x="-32" y="331"/>
      <point x="-24" y="354" type="qcurve"/>
      <point x="26" y="339" type="line"/>
      <point x="20" y="319"/>
      <point x="12" y="270"/>
      <point x="12" y="244" type="qcurve" smooth="yes"/>
      <point x="12" y="161"/>
      <point x="82" y="37"/>
      <point x="196" y="-45"/>
      <point x="342" y="-86"/>
      <point x="418" y="-86" type="qcurve" smooth="yes"/>
      <point x="528" y="-86"/>
      <point x="700" y="-10"/>
      <point x="839" y="122"/>
      <point x="955" y="299"/>
      <point x="1064" y="502"/>
      <point x="1173" y="721"/>
      <point x="1237" y="828" type="qcurve"/>
      <point x="928" y="828" type="line"/>
      <point x="958" y="893" type="line"/>
      <point x="1277" y="893" type="line"/>
      <point x="1334" y="981"/>
      <point x="1466" y="1143"/>
      <point x="1548" y="1212" type="qcurve"/>
    </contour>
    <contour>
      <point x="2282" y="1420" type="line"/>
      <point x="2217" y="1378"/>
      <point x="2076" y="1321"/>
      <point x="1926" y="1287"/>
      <point x="1768" y="1273"/>
      <point x="1687" y="1273" type="qcurve" smooth="yes"/>
      <point x="1585" y="1273"/>
      <point x="1359" y="1294"/>
      <point x="1136" y="1318"/>
      <point x="928" y="1339"/>
      <point x="844" y="1339" type="qcurve" smooth="yes"/>
      <point x="721" y="1339"/>
      <point x="519" y="1276"/>
      <point x="375" y="1161"/>
      <point x="296" y="1000"/>
      <point x="296" y="901" type="qcurve" smooth="yes"/>
      <point x="296" y="832"/>
      <point x="343" y="721"/>
      <point x="430" y="645"/>
      <point x="552" y="604"/>
      <point x="626" y="604" type="qcurve" smooth="yes"/>
      <point x="690" y="604"/>
      <point x="826" y="635"/>
      <point x="892" y="666" type="qcurve"/>
      <point x="913" y="625" type="line"/>
      <point x="846" y="586"/>
      <point x="671" y="540"/>
      <point x="582" y="540" type="qcurve" smooth="yes"/>
      <point x="505" y="540"/>
      <point x="363" y="584"/>
      <point x="252" y="673"/>
      <point x="186" y="808"/>
      <point x="186" y="899" type="qcurve" smooth="yes"/>
      <point x="186" y="989"/>
      <point x="240" y="1132"/>
      <point x="334" y="1243"/>
      <point x="460" y="1321"/>
      <point x="605" y="1372"/>
      <point x="761" y="1395"/>
      <point x="838" y="1395" type="qcurve" smooth="yes"/>
      <point x="930" y="1395"/>
      <point x="1141" y="1373"/>
      <point x="1361" y="1348"/>
      <point x="1583" y="1326"/>
      <point x="1687" y="1326" type="qcurve" smooth="yes"/>
      <point x="1765" y="1326"/>
      <point x="1917" y="1339"/>
      <point x="2060" y="1371"/>
      <point x="2193" y="1424"/>
      <point x="2254" y="1464" type="qcurve"/>
    </contour>
  </outline>
</glyph>
<glyph name="uogonek" format="2">
  <advance width="888"/>
  <unicode hex="0173"/>
  <outline>
    <contour>
      <point x="600" y="-251" type="line"/>
      <point x="584" y="-258"/>
      <point x="539" y="-274"/>
      <point x="505" y="-274" type="qcurve" smooth="yes"/>
      <point x="443" y="-274"/>
      <point x="381" y="-215"/>
      <point x="381" y="-174" type="qcurve" smooth="yes"/>
      <point x="381" y="-147"/>
      <point x="404" y="-99"/>
      <point x="442" y="-58"/>
      <point x="489" y="-24"/>
      <point x="513" y="-11" type="qcurve"/>
      <point x="475" y="-1"/>
      <point x="433" y="58"/>
      <point x="433" y="95" type="qcurve" smooth="yes"/>
      <point x="433" y="121"/>
      <point x="450" y="183"/>
      <point x="466" y="218" type="qcurve"/>
      <point x="420" y="164"/>
      <point x="330" y="73"/>
      <point x="241" y="8"/>
      <point x="153" y="-29"/>
      <point x="108" y="-29" type="qcurve" smooth="yes"/>
      <point x="70" y="-29"/>
      <point x="9" y="-2"/>
      <point x="-36" y="47"/>
      <point x="-60" y="118"/>
      <point x="-60" y="162" type="qcurve" smooth="yes"/>
      <point x="-60" y="231"/>
      <point x="1" y="377"/>
      <point x="94" y="515"/>
      <point x="207" y="639"/>
      <point x="258" y="687" type="qcurve"/>
      <point x="301" y="657" type="line"/>
      <point x="265" y="604"/>
      <point x="176" y="470"/>
      <point x="97" y="327"/>
      <point x="43" y="184"/>
      <point x="43" y="123" type="qcurve" smooth="yes"/>
      <point x="43" y="82"/>
      <point x="74" y="24"/>
      <point x="118" y="24" type="qcurve" smooth="yes"/>
      <point x="166" y="24"/>
      <point x="281" y="100"/>
      <point x="402" y="222"/>
      <point x="523" y="375"/>
      <point x="631" y="531"/>
      <point x="720" y="673"/>
      <point x="748" y="723" type="qcurve"/>
      <point x="821" y="687" type="line"/>
      <point x="763" y="573"/>
      <point x="656" y="376"/>
      <point x="573" y="219"/>
      <point x="524" y="103"/>
      <point x="524" y="69" type="qcurve" smooth="yes"/>
      <point x="524" y="55"/>
      <point x="536" y="37"/>
      <point x="549" y="37" type="qcurve" smooth="yes"/>
      <point x="586" y="36"/>
      <point x="675" y="102"/>
      <point x="766" y="202"/>
      <point x="853" y="321"/>
      <point x="888" y="373" type="qcurve"/>
      <point x="924" y="345" type="line"/>
      <point x="919" y="336"/>
      <point x="888" y="286"/>
      <point x="843" y="219"/>
      <point x="784" y="142"/>
      <point x="716" y="71"/>
      <point x="641" y="12"/>
      <point x="602" y="-3" type="qcurve" smooth="yes"/>
      <point x="580" y="-12"/>
      <point x="533" y="-43"/>
      <point x="495" y="-84"/>
      <point x="470" y="-133"/>
      <point x="470" y="-159" type="qcurve" smooth="yes"/>
      <point x="470" y="-191"/>
      <point x="516" y="-224"/>
      <point x="545" y="-224" type="qcurve" smooth="yes"/>
      <point x="566" y="-224"/>
      <point x="602" y="-212"/>
      <point x="610" y="-209" type="qcurve"/>
      <point x="600" y="-251" type="line"/>
    </contour>
  </outline>
</glyph>
<glyph name="circumflex" format="2">
  <advance width="500"/>
  <unicode hex="02C6"/>
  <outline>
    <contour>
      <point x="407" y="856" type="line"/>
      <point x="348" y="976" type="line"/>
      <point x="183" y="856" type="line"/>
      <point x="114" y="856" type="line"/>
      <point x="331" y="1050" type="line"/>
      <point x="416" y="1050" type="line"/>
      <point x="455" y="856" type="line"/>
    </contour>
  </outline>
</glyph>
<glyph name="ring" format="2">
  <advance width="500"/>
  <unicode hex="02DA"/>
  <outline>
    <contour>
      <point x="431" y="957" type="qcurve" smooth="yes"/>
      <point x="431" y="932"/>
      <point x="412" y="888"/>
      <point x="380" y="855"/>
      <point x="335" y="836"/>
      <point x="310" y="836" type="qcurve" smooth="yes"/>
      <point x="284" y="836"/>
      <point x="240" y="854"/>
      <point x="208" y="887"/>
      <point x="189" y="931"/>
      <point x="189" y="957" type="qcurve" smooth="yes"/>
      <point x="189" y="982"/>
      <point x="208" y="1027"/>
      <point x="240" y="1059"/>
      <point x="284" y="1078"/>
      <point x="310" y="1078" type="qcurve" smooth="yes"/>
      <point x="335" y="1078"/>
      <point x="380" y="1060"/>
      <point x="412" y="1027"/>
      <point x="431" y="983"/>
    </contour>
    <contour>
      <point x="383" y="957" type="qcurve" smooth="yes"/>
      <point x="383" y="988"/>
      <point x="341" y="1031"/>
      <point x="310" y="1031" type="qcurve" smooth="yes"/>
      <point x="279" y="1031"/>
      <point x="236" y="988"/>
      <point x="236" y="957" type="qcurve" smooth="yes"/>
      <point x="236" y="926"/>
      <point x="279" y="883"/>
      <point x="310" y="883" type="qcurve" smooth="yes"/>
      <point x="341" y="883"/>
      <point x="383" y="928"/>
    </contour>
  </outline>
</glyph>
<glyph name="mu" format="2">
  <advance width="680"/>
  <unicode hex="03BC"/>
  <outline>
    <contour>
      <point x="583" y="208" type="line"/>
      <point x="526" y="138"/>
      <point x="453" y="55"/>
      <point x="403" y="12"/>
      <point x="367" y="-1"/>
      <point x="348" y="-1" type="qcurve" smooth="yes"/>
      <point x="321" y="-1"/>
      <point x="301" y="27"/>
      <point x="302" y="68"/>
      <point x="316" y="116"/>
      <point x="322" y="137" type="qcurve"/>
      <point x="273" y="63"/>
      <point x="179" y="-1"/>
      <point x="134" y="-1" type="qcurve" smooth="yes"/>
      <point x="123" y="-1"/>
      <point x="93" y="5"/>
      <point x="66" y="25"/>
      <point x="49" y="63"/>
      <point x="53" y="95" type="qcurve"/>
      <point x="46" y="94" type="line"/>
      <point x="31" y="55"/>
      <point x="-6" y="-53"/>
      <point x="-43" y="-163"/>
      <point x="-77" y="-261"/>
      <point x="-89" y="-290" type="qcurve"/>
      <point x="-200" y="-288" type="line"/>
      <point x="-170" y="-219"/>
      <point x="-90" y="-33"/>
      <point x="11" y="207"/>
      <point x="136" y="503"/>
      <point x="212" y="682" type="qcurve"/>
      <point x="319" y="682" type="line"/>
      <point x="125" y="219" type="line" smooth="yes"/>
      <point x="114" y="195"/>
      <point x="100" y="155"/>
      <point x="100" y="138" type="qcurve" smooth="yes"/>
      <point x="100" y="115"/>
      <point x="133" y="93"/>
      <point x="150" y="93" type="qcurve" smooth="yes"/>
      <point x="178" y="93"/>
      <point x="227" y="109"/>
      <point x="276" y="155"/>
      <point x="330" y="237"/>
      <point x="397" y="368"/>
      <point x="481" y="554"/>
      <point x="536" y="682" type="qcurve"/>
      <point x="643" y="682" type="line"/>
      <point x="640" y="675"/>
      <point x="620" y="629"/>
      <point x="591" y="560"/>
      <point x="555" y="476"/>
      <point x="517" y="388"/>
      <point x="481" y="302"/>
      <point x="450" y="230"/>
      <point x="428" y="179"/>
      <point x="424" y="170" type="qcurve" smooth="yes"/>
      <point x="420" y="161"/>
      <point x="414" y="141"/>
      <point x="414" y="134" type="qcurve" smooth="yes"/>
      <point x="414" y="122"/>
      <point x="425" y="114"/>
      <point x="434" y="114" type="qcurve" smooth="yes"/>
      <point x="441" y="114"/>
      <point x="460" y="123"/>
      <point x="488" y="148"/>
      <point x="529" y="192"/>
      <point x="558" y="228" type="qcurve"/>
    </contour>
  </outline>
</glyph>
<glyph name="quotesinglbase" format="2">
  <advance width="300"/>
  <unicode hex="201A"/>
  <outline>
    <contour>
      <point x="-124" y="-109" type="line"/>
      <point x="-84" y="-89"/>
      <point x="-14" y="-33"/>
      <point x="0" y="-7" type="qcurve"/>
      <point x="-32" y="0"/>
      <point x="-60" y="41"/>
      <point x="-60" y="64" type="qcurve" smooth="yes"/>
      <point x="-60" y="95"/>
      <point x="-16" y="136"/>
      <point x="13" y="136" type="qcurve" smooth="yes"/>
      <point x="44" y="136"/>
      <point x="85" y="92"/>
      <point x="85" y="63" type="qcurve" smooth="yes"/>
      <point x="85" y="31"/>
      <point x="52" y="-30"/>
      <point x="-2" y="-84"/>
      <point x="-70" y="-127"/>
      <point x="-105" y="-141" type="qcurve"/>
    </contour>
  </outline>
</glyph>
<glyph name="quotedblleft" format="2">
  <advance width="485"/>
  <unicode hex="201C"/>
  <outline>
    <contour>
      <point x="514" y="1422" type="line"/>
      <point x="474" y="1402"/>
      <point x="404" y="1346"/>
      <point x="390" y="1320" type="qcurve"/>
      <point x="422" y="1313"/>
      <point x="450" y="1272"/>
      <point x="450" y="1249" type="qcurve" smooth="yes"/>
      <point x="450" y="1218"/>
      <point x="406" y="1177"/>
      <point x="377" y="1177" type="qcurve" smooth="yes"/>
      <point x="346" y="1177"/>
      <point x="305" y="1221"/>
      <point x="305" y="1250" type="qcurve" smooth="yes"/>
      <point x="305" y="1281"/>
      <point x="338" y="1343"/>
      <point x="392" y="1397"/>
      <point x="460" y="1440"/>
      <point x="495" y="1454" type="qcurve"/>
    </contour>
    <contour>
      <point x="699" y="1422" type="line"/>
      <point x="659" y="1402"/>
      <point x="589" y="1346"/>
      <point x="575" y="1320" type="qcurve"/>
      <point x="607" y="1313"/>
      <point x="635" y="1272"/>
      <point x="635" y="1249" type="qcurve" smooth="yes"/>
      <point x="635" y="1218"/>
      <point x="591" y="1177"/>
      <point x="562" y="1177" type="qcurve" smooth="yes"/>
      <point x="531" y="1177"/>
      <point x="490" y="1221"/>
      <point x="490" y="1250" type="qcurve" smooth="yes"/>
      <point x="490" y="1281"/>
      <point x="523" y="1343"/>
      <point x="577" y="1397"/>
      <point x="645" y="1440"/>
      <point x="680" y="1454" type="qcurve"/>
    </contour>
  </outline>
</glyph>
<glyph name="bullet" format="2">
  <advance width="700"/>
  <unicode hex="2022"/>
  <outline>
    <contour>
      <point x="481" y="598" type="qcurve" smooth="yes"/>
      <point x="481" y="561"/>
      <point x="454" y="496"/>
      <point x="406" y="448"/>
      <point x="342" y="421"/>
      <point x="305" y="421" type="qcurve" smooth="yes"/>
      <point x="269" y="421"/>
      <point x="205" y="448"/>
      <point x="157" y="496"/>
      <point x="130" y="561"/>
      <point x="130" y="598" type="qcurve" smooth="yes"/>
      <point x="130" y="634"/>
      <point x="157" y="697"/>
      <point x="205" y="745"/>
      <point x="269" y="772"/>
      <point x="305" y="772" type="qcurve" smooth="yes"/>
      <point x="342" y="772"/>
      <point x="406" y="745"/>
      <point x="454" y="697"/>
      <point x="481" y="634"/>
    </contour>
  </outline>
</glyph>
<glyph name="guilsinglright" format="2">
  <advance width="700"/>
  <unicode hex="203A"/>
  <outline>
    <contour>
      <point x="490" y="371" type="line"/>
      <point x="57" y="89" type="line"/>
      <point x="65" y="167" type="line"/>
      <point x="412" y="371" type="line"/>
      <point x="265" y="577" type="line"/>
      <point x="332" y="654" type="line"/>
    </contour>
  </outline>
</glyph>
<glyph name="approxequal" format="2">
  <advance width="800"/>
  <unicode hex="2248"/>
  <outline>
    <contour>
      <point x="364" y="846" type="qcurve" smooth="yes"/>
      <point x="335" y="846"/>
      <point x="280" y="808"/>
      <point x="257" y="785" type="qcurve" smooth="yes"/>
      <point x="231" y="759"/>
      <point x="207" y="725" type="qcurve"/>
      <point x="163" y="754" type="line"/>
      <point x="190" y="794"/>
      <point x="223" y="827" type="qcurve" smooth="yes"/>
      <point x="251" y="854"/>
      <point x="327" y="900"/>
      <point x="372" y="900" type="qcurve" smooth="yes"/>
      <point x="408" y="900"/>
      <point x="466" y="862"/>
      <point x="517" y="817"/>
      <point x="566" y="779"/>
      <point x="595" y="779" type="qcurve" smooth="yes"/>
      <point x="624" y="779"/>
      <point x="679" y="816"/>
      <point x="702" y="839" type="qcurve" smooth="yes"/>
      <point x="728" y="865"/>
      <point x="752" y="900" type="qcurve"/>
      <point x="796" y="871" type="line"/>
      <point x="769" y="830"/>
      <point x="736" y="798" type="qcurve" smooth="yes"/>
      <point x="707" y="770"/>
      <point x="632" y="725"/>
      <point x="587" y="725" type="qcurve" smooth="yes"/>
      <point x="551" y="725"/>
      <point x="493" y="763"/>
      <point x="442" y="808"/>
      <point x="392" y="846"/>
    </contour>
    <contour>
      <point x="300" y="587" type="qcurve" smooth="yes"/>
      <point x="271" y="587"/>
      <point x="216" y="549"/>
      <point x="193" y="526" type="qcurve" smooth="yes"/>
      <point x="167" y="500"/>
      <point x="143" y="466" type="qcurve"/>
      <point x="99" y="495" type="line"/>
      <point x="126" y="535"/>
      <point x="159" y="568" type="qcurve" smooth="yes"/>
      <point x="187" y="595"/>
      <point x="263" y="641"/>
      <point x="308" y="641" type="qcurve" smooth="yes"/>
      <point x="344" y="641"/>
      <point x="402" y="603"/>
      <point x="453" y="558"/>
      <point x="502" y="520"/>
      <point x="531" y="520" type="qcurve" smooth="yes"/>
      <point x="560" y="520"/>
      <point x="615" y="557"/>
      <point x="638" y="580" type="qcurve" smooth="yes"/>
      <point x="664" y="606"/>
      <point x="688" y="641" type="qcurve"/>
      <point x="732" y="612" type="line"/>
      <point x="705" y="571"/>
      <point x="672" y="539" type="qcurve" smooth="yes"/>
      <point x="643" y="511"/>
      <point x="568" y="466"/>
      <point x="523" y="466" type="qcurve" smooth="yes"/>
      <point x="487" y="466"/>
      <point x="429" y="504"/>
      <point x="378" y="549"/>
      <point x="328" y="587"/>
    </contour>
  </outline>
</glyph>
<glyph name="notequal" format="2">
  <advance width="800"/>
  <unicode hex="2260"/>
  <outline>
    <contour>
      <point x="154" y="264" type="line"/>
      <point x="318" y="524" type="line"/>
      <point x="103" y="524" type="line"/>
      <point x="130" y="579" type="line"/>
      <point x="353" y="579" type="line"/>
      <point x="484" y="785" type="line"/>
      <point x="171" y="785" type="line"/>
      <point x="198" y="840" type="line"/>
      <point x="519" y="840" type="line"/>
      <point x="677" y="1090" type="line"/>
      <point x="739" y="1090" type="line"/>
      <point x="580" y="840" type="line"/>
      <point x="790" y="840" type="line"/>
      <point x="763" y="785" type="line"/>
      <point x="545" y="785" type="line"/>
      <point x="415" y="579" type="line"/>
      <point x="722" y="579" type="line"/>
      <point x="695" y="524" type="line"/>
      <point x="380" y="524" type="line"/>
      <point x="216" y="264" type="line"/>
    </contour>
  </outline>
</glyph>
